Grade 1 UC .ufo
<glyph name="exclam" format="2">
  <advance width="662"/>
  <unicode hex="0021"/>
  <outline>
    <contour>
      <point x="159.038" y="141.76" type="qcurve" smooth="yes"/>
      <point x="159.038" y="208.756"/>
      <point x="255.262" y="306.174"/>
      <point x="330.718" y="306.174" type="qcurve" smooth="yes"/>
      <point x="406.174" y="306.174"/>
      <point x="502.398" y="208.756"/>
      <point x="502.398" y="141.76" type="qcurve" smooth="yes"/>
      <point x="502.398" y="75.418"/>
      <point x="406.174" y="-22.0"/>
      <point x="330.718" y="-22.0" type="qcurve" smooth="yes"/>
      <point x="255.262" y="-22.0"/>
      <point x="159.038" y="75.418"/>
    </contour>
    <contour>
      <point x="191.392" y="1372.662" type="line" smooth="yes"/>
      <point x="188.046" y="1446.544"/>
      <point x="259.532" y="1543.232"/>
      <point x="327.334" y="1543.886" type="qcurve" smooth="yes"/>
      <point x="395.48199999999997" y="1544.886"/>
      <point x="471.65999999999997" y="1447.852"/>
      <point x="468.31399999999996" y="1373.316" type="qcurve" smooth="yes"/>
      <point x="456.96799999999996" y="1108.0" type="line"/>
      <point x="413.246" y="800.0" type="line"/>
      <point x="386.406" y="455.76" type="line"/>
      <point x="271.646" y="455.76" type="line"/>
      <point x="244.806" y="800.0" type="line"/>
      <point x="202.738" y="1108.0" type="line"/>
    </contour>
  </outline>
</glyph>
<glyph name="numbersign" format="2">
  <advance width="1313"/>
  <unicode hex="0023"/>
  <outline>
    <contour>
      <point x="78.81" y="452.898" type="line"/>
      <point x="78.81" y="639.73" type="line"/>
      <point x="1139.464" y="639.73" type="line"/>
      <point x="1139.464" y="452.898" type="line"/>
    </contour>
    <contour>
      <point x="173.464" y="841.27" type="line"/>
      <point x="173.464" y="1028.102" type="line"/>
      <point x="1234.118" y="1028.102" type="line"/>
      <point x="1234.118" y="841.27" type="line"/>
    </contour>
    <contour>
      <point x="139.308" y="-3.071999999999999" type="line"/>
      <point x="680.392" y="1536.802" type="line"/>
      <point x="782.198" y="1512.224" type="line"/>
      <point x="241.768" y="-27.65" type="line"/>
    </contour>
    <contour>
      <point x="551.27" y="-3.071999999999999" type="line"/>
      <point x="1092.354" y="1536.802" type="line"/>
      <point x="1194.814" y="1512.224" type="line"/>
      <point x="653.73" y="-27.65" type="line"/>
    </contour>
  </outline>
</glyph>
<glyph name="quotesingle" format="2">
  <advance width="601"/>
  <unicode hex="0027"/>
  <outline>
    <contour>
      <point x="259.19" y="909.678" type="line"/>
      <point x="144.818" y="1393.244" type="line"/>
      <point x="144.818" y="1451.97"/>
      <point x="220.35" y="1558.0"/>
      <point x="300.304" y="1558.0" type="qcurve" smooth="yes"/>
      <point x="380.258" y="1558.0"/>
      <point x="456.13599999999997" y="1451.97"/>
      <point x="456.13599999999997" y="1393.244" type="qcurve"/>
      <point x="339.764" y="909.678" type="line"/>
    </contour>
  </outline>
</glyph>
<glyph name="comma" format="2">
  <advance width="615"/>
  <unicode hex="002C"/>
  <outline>
    <contour>
      <point x="123.658" y="-231.072" type="line"/>
      <point x="171.346" y="-199.65"/>
      <point x="291.57" y="-82.422"/>
      <point x="315.566" y="-5.388000000000001" type="qcurve"/>
      <point x="221.346" y="-2.7720000000000002"/>
      <point x="131.046" y="86.22"/>
      <point x="131.046" y="155.6" type="qcurve" smooth="yes"/>
      <point x="131.046" y="223.634"/>
      <point x="230.384" y="325.896"/>
      <point x="308.262" y="325.896" type="qcurve" smooth="yes"/>
      <point x="382.14" y="325.896"/>
      <point x="485.478" y="234.672"/>
      <point x="485.478" y="142.448" type="qcurve" smooth="yes"/>
      <point x="485.478" y="7.299999999999997"/>
      <point x="295.186" y="-234.262"/>
      <point x="176.772" y="-293.954" type="qcurve"/>
    </contour>
  </outline>
</glyph>
<glyph name="question" format="2">
  <advance width="1003"/>
  <unicode hex="003F"/>
  <outline>
    <contour>
      <point x="226.848" y="141.76" type="qcurve" smooth="yes"/>
      <point x="226.848" y="208.756"/>
      <point x="323.072" y="306.174"/>
      <point x="398.528" y="306.174" type="qcurve" smooth="yes"/>
      <point x="473.984" y="306.174"/>
      <point x="570.208" y="208.756"/>
      <point x="570.208" y="141.76" type="qcurve" smooth="yes"/>
      <point x="570.208" y="75.418"/>
      <point x="473.984" y="-22.0"/>
      <point x="398.528" y="-22.0" type="qcurve" smooth="yes"/>
      <point x="323.072" y="-22.0"/>
      <point x="226.848" y="75.418"/>
    </contour>
    <contour>
      <point x="45.11" y="1220.506" type="qcurve" smooth="yes"/>
      <point x="45.11" y="1366.62"/>
      <point x="284.338" y="1540.0"/>
      <point x="500.448" y="1540.0" type="qcurve" smooth="yes"/>
      <point x="721.668" y="1540.0"/>
      <point x="979.048" y="1348.0"/>
      <point x="979.048" y="1163.0" type="qcurve" smooth="yes"/>
      <point x="979.048" y="977.266"/>
      <point x="762.386" y="772.73"/>
      <point x="666.66" y="736.654" type="qcurve" smooth="yes"/>
      <point x="579.934" y="704.232"/>
      <point x="442.448" y="611.92"/>
      <point x="442.448" y="528.92" type="qcurve" smooth="yes"/>
      <point x="442.448" y="455.76" type="line"/>
      <point x="325.148" y="455.76" type="line"/>
      <point x="310.148" y="539.76" type="line" smooth="yes"/>
      <point x="294.726" y="626.87"/>
      <point x="392.688" y="797.174"/>
      <point x="503.996" y="861.52" type="qcurve" smooth="yes"/>
      <point x="587.076" y="909.7139999999999"/>
      <point x="708.008" y="1029.756"/>
      <point x="708.008" y="1154.84" type="qcurve" smooth="yes"/>
      <point x="708.008" y="1273.924"/>
      <point x="569.768" y="1411.008"/>
      <point x="449.802" y="1411.008" type="qcurve" smooth="yes"/>
      <point x="336.452" y="1411.008"/>
      <point x="210.562" y="1331.966"/>
      <point x="210.562" y="1280.696" type="qcurve" smooth="yes"/>
      <point x="210.562" y="1249.62"/>
      <point x="329.14" y="1192.236"/>
      <point x="330.448" y="1135.97" type="qcurve" smooth="yes"/>
      <point x="332.40999999999997" y="1093.202"/>
      <point x="268.296" y="1024.704"/>
      <point x="204.144" y="1024.704" type="qcurve" smooth="yes"/>
      <point x="133.646" y="1024.704"/>
      <point x="45.11" y="1124.278"/>
    </contour>
  </outline>
</glyph>
<glyph name="I" format="2">
  <advance width="843"/>
  <unicode hex="0049"/>
  <outline>
    <contour>
      <point x="68.16" y="0.0" type="line"/>
      <point x="68.16" y="110.38" type="line"/>
      <point x="275.78" y="145.38" type="line"/>
      <point x="277.78" y="754.0" type="line"/>
      <point x="275.78" y="1341.62" type="line"/>
      <point x="68.16" y="1375.62" type="line"/>
      <point x="68.16" y="1500.0" type="line"/>
      <point x="774.466" y="1500.0" type="line"/>
      <point x="774.466" y="1375.62" type="line"/>
      <point x="566.846" y="1341.62" type="line"/>
      <point x="564.846" y="754.0" type="line"/>
      <point x="566.846" y="146.034" type="line"/>
      <point x="774.466" y="110.38" type="line"/>
      <point x="774.466" y="0.0" type="line"/>
    </contour>
  </outline>
</glyph>
<glyph name="K" format="2">
  <advance width="1559"/>
  <unicode hex="004B"/>
  <outline>
    <contour>
      <point x="68.16" y="0.0" type="line"/>
      <point x="68.16" y="110.38" type="line"/>
      <point x="265.78" y="145.38" type="line"/>
      <point x="267.78" y="754.0" type="line"/>
      <point x="265.78" y="1341.62" type="line"/>
      <point x="68.16" y="1375.62" type="line"/>
      <point x="68.16" y="1500.0" type="line"/>
      <point x="747.234" y="1500.0" type="line"/>
      <point x="747.234" y="1375.62" type="line"/>
      <point x="556.846" y="1341.62" type="line"/>
      <point x="554.846" y="754.0" type="line"/>
      <point x="556.846" y="145.38" type="line"/>
      <point x="746.854" y="110.38" type="line"/>
      <point x="746.854" y="0.0" type="line"/>
    </contour>
    <contour>
      <point x="407.334" y="380.036" type="line"/>
      <point x="407.334" y="562.796" type="line"/>
      <point x="1121.618" y="1333.156" type="line"/>
      <point x="981.192" y="1375.966" type="line"/>
      <point x="981.192" y="1500.0" type="line"/>
      <point x="1486.534" y="1500.0" type="line"/>
      <point x="1486.534" y="1375.966" type="line"/>
      <point x="1308.188" y="1333.156" type="line"/>
      <point x="853.606" y="852.882" type="line"/>
      <point x="815.876" y="812.806" type="line"/>
    </contour>
    <contour>
      <point x="694.356" y="776.088" type="line"/>
      <point x="888.6279999999999" y="976.36" type="line"/>
      <point x="1442.176" y="145.38" type="line"/>
      <point x="1582.568" y="110.38" type="line"/>
      <point x="1582.568" y="0.0" type="line"/>
      <point x="968.604" y="0.0" type="line"/>
      <point x="968.604" y="110.38" type="line"/>
      <point x="1116.19" y="145.38" type="line"/>
    </contour>
  </outline>
</glyph>
<glyph name="L" format="2">
  <advance width="1310"/>
  <unicode hex="004C"/>
  <outline>
    <contour>
      <point x="82.692" y="0.0" type="line"/>
      <point x="82.692" y="110.38" type="line"/>
      <point x="265.78" y="143.418" type="line"/>
      <point x="267.78" y="754.0" type="line"/>
      <point x="265.78" y="1341.62" type="line"/>
      <point x="68.16" y="1375.62" type="line"/>
      <point x="68.16" y="1500.0" type="line"/>
      <point x="770.546" y="1500.0" type="line"/>
      <point x="770.546" y="1375.62" type="line"/>
      <point x="557.192" y="1341.62" type="line"/>
      <point x="555.538" y="754.0" type="line"/>
      <point x="557.538" y="147.11" type="line"/>
      <point x="594.77" y="120.11" type="line"/>
      <point x="1079.874" y="120.11" type="line"/>
      <point x="1163.798" y="421.806" type="line"/>
      <point x="1302.406" y="421.806" type="line"/>
      <point x="1253.482" y="0.0" type="line"/>
    </contour>
  </outline>
</glyph>
<glyph name="M" format="2">
  <advance width="2134"/>
  <unicode hex="004D"/>
  <outline>
    <contour>
      <point x="71.274" y="0.0" type="line"/>
      <point x="71.274" y="110.38" type="line"/>
      <point x="264.742" y="145.38" type="line"/>
      <point x="266.742" y="754.0" type="line"/>
      <point x="264.742" y="1341.966" type="line"/>
      <point x="71.274" y="1375.966" type="line"/>
      <point x="71.274" y="1500.0" type="line"/>
      <point x="613.892" y="1500.0" type="line"/>
      <point x="851.448" y="850.482" type="line"/>
      <point x="1051.0" y="317.93399999999997" type="line"/>
      <point x="1249.628" y="842.444" type="line"/>
      <point x="1493.914" y="1500.0" type="line"/>
      <point x="2065.486" y="1500.0" type="line"/>
      <point x="2065.486" y="1375.966" type="line"/>
      <point x="1871.672" y="1341.966" type="line"/>
      <point x="1869.672" y="754.0" type="line"/>
      <point x="1871.672" y="145.38" type="line"/>
      <point x="2065.486" y="110.38" type="line"/>
      <point x="2065.486" y="0.0" type="line"/>
      <point x="1370.286" y="0.0" type="line"/>
      <point x="1370.286" y="110.38" type="line"/>
      <point x="1579.914" y="145.38" type="line"/>
      <point x="1582.26" y="753.308" type="line"/>
      <point x="1579.914" y="1314.814" type="line"/>
      <point x="1361.438" y="752.768" type="line"/>
      <point x="1087.0" y="-6.962" type="line"/>
      <point x="874.002" y="-6.962" type="line"/>
      <point x="609.986" y="735.81" type="line"/>
      <point x="387.742" y="1321.89" type="line"/>
      <point x="385.742" y="754.0" type="line"/>
      <point x="387.742" y="145.38" type="line"/>
      <point x="579.792" y="110.38" type="line"/>
      <point x="579.792" y="0.0" type="line"/>
    </contour>
  </outline>
</glyph>
<glyph name="S" format="2">
  <advance width="1157"/>
  <unicode hex="0053"/>
  <outline>
    <contour>
      <point x="51.966" y="-0.346" type="line"/>
      <point x="51.966" y="479.502" type="line"/>
      <point x="182.844" y="479.502" type="line"/>
      <point x="199.73" y="393.186" type="line" smooth="yes"/>
      <point x="227.038" y="256.49"/>
      <point x="434.81" y="120.338"/>
      <point x="579.886" y="120.338" type="qcurve" smooth="yes"/>
      <point x="728.004" y="120.338"/>
      <point x="875.62" y="252.27"/>
      <point x="875.62" y="358.582" type="qcurve" smooth="yes"/>
      <point x="875.62" y="479.168"/>
      <point x="695.612" y="601.906"/>
      <point x="498.574" y="674.83" type="qcurve" smooth="yes"/>
      <point x="287.894" y="752.096"/>
      <point x="90.278" y="953.202"/>
      <point x="90.278" y="1119.468" type="qcurve" smooth="yes"/>
      <point x="90.278" y="1293.54"/>
      <point x="333.384" y="1522.422"/>
      <point x="538.95" y="1522.422" type="qcurve" smooth="yes"/>
      <point x="650.018" y="1522.422"/>
      <point x="818.284" y="1463.114"/>
      <point x="872.398" y="1422.038" type="qcurve"/>
      <point x="896.512" y="1491.498" type="line"/>
      <point x="1010.892" y="1491.498" type="line"/>
      <point x="1010.892" y="1059.65" type="line"/>
      <point x="884.782" y="1059.65" type="line"/>
      <point x="865.28" y="1174.974" type="line" smooth="yes"/>
      <point x="848.1659999999999" y="1264.78"/>
      <point x="682.786" y="1368.354"/>
      <point x="559.212" y="1368.354" type="qcurve" smooth="yes"/>
      <point x="446.866" y="1368.354"/>
      <point x="326.398" y="1266.886"/>
      <point x="326.398" y="1180.996" type="qcurve" smooth="yes"/>
      <point x="326.398" y="1099.3"/>
      <point x="453.98" y="987.908"/>
      <point x="661.018" y="912.292" type="qcurve" smooth="yes"/>
      <point x="876.466" y="834.296"/>
      <point x="1120.276" y="619.3"/>
      <point x="1120.276" y="429.072" type="qcurve" smooth="yes"/>
      <point x="1120.276" y="228.46"/>
      <point x="848.326" y="-20.346"/>
      <point x="621.566" y="-20.346" type="qcurve" smooth="yes"/>
      <point x="483.916" y="-20.346"/>
      <point x="282.726" y="44.658"/>
      <point x="214.038" y="103.658" type="qcurve"/>
      <point x="169.114" y="-0.346" type="line"/>
    </contour>
  </outline>
</glyph>
<glyph name="bracketleft" format="2">
  <advance width="675"/>
  <unicode hex="005B"/>
  <outline>
    <contour>
      <point x="129.43" y="508.0" type="line"/>
      <point x="117.43" y="1362.0" type="line"/>
      <point x="98.43" y="1382.0" type="line"/>
      <point x="98.43" y="1500.0" type="line"/>
      <point x="618.364" y="1500.0" type="line"/>
      <point x="618.364" y="1381.0" type="line"/>
      <point x="383.238" y="1362.0" type="line"/>
      <point x="371.238" y="508.0" type="line"/>
      <point x="383.238" y="-342.0" type="line"/>
      <point x="618.364" y="-361.0" type="line"/>
      <point x="618.364" y="-480.0" type="line"/>
      <point x="98.43" y="-480.0" type="line"/>
      <point x="98.43" y="-362.0" type="line"/>
      <point x="117.43" y="-342.0" type="line"/>
    </contour>
  </outline>
</glyph>
<glyph name="a" format="2">
  <advance width="1221"/>
  <unicode hex="0061"/>
  <outline>
    <contour>
      <point x="70.582" y="257.726" type="qcurve" smooth="yes"/>
      <point x="70.582" y="404.068"/>
      <point x="406.118" y="596.57"/>
      <point x="838.816" y="639.418" type="qcurve"/>
      <point x="847.47" y="544.194" type="line"/>
      <point x="573.634" y="514.076"/>
      <point x="346.77" y="394.806"/>
      <point x="347.462" y="268.456" type="qcurve" smooth="yes"/>
      <point x="347.808" y="198.262"/>
      <point x="438.352" y="125.376"/>
      <point x="502.622" y="125.376" type="qcurve" smooth="yes"/>
      <point x="569.28" y="125.376"/>
      <point x="711.562" y="205.958"/>
      <point x="740.372" y="256.19" type="qcurve"/>
      <point x="742.372" y="615.27" type="line" smooth="yes"/>
      <point x="743.372" y="783.966"/>
      <point x="635.642" y="899.08"/>
      <point x="532.338" y="899.08" type="qcurve" smooth="yes"/>
      <point x="453.756" y="899.08"/>
      <point x="340.832" y="863.654"/>
      <point x="313.676" y="837.882" type="qcurve"/>
      <point x="332.6" y="818.958"/>
      <point x="355.562" y="774.612"/>
      <point x="358.562" y="751.844" type="qcurve" smooth="yes"/>
      <point x="365.216" y="706.27"/>
      <point x="312.912" y="646.08"/>
      <point x="261.916" y="644.35" type="qcurve" smooth="yes"/>
      <point x="209.882" y="642.62"/>
      <point x="138.464" y="723.08"/>
      <point x="138.464" y="792.232" type="qcurve" smooth="yes"/>
      <point x="138.464" y="892.844"/>
      <point x="391.49" y="1041.684"/>
      <point x="594.892" y="1041.684" type="qcurve" smooth="yes"/>
      <point x="807.298" y="1041.684"/>
      <point x="1015.4" y="851.916"/>
      <point x="1016.092" y="632.258" type="qcurve" smooth="yes"/>
      <point x="1017.13" y="128.84" type="line"/>
      <point x="1169.438" y="93.84" type="line"/>
      <point x="1169.438" y="0.0" type="line"/>
      <point x="810.064" y="0.0" type="line"/>
      <point x="758.064" y="60.346" type="line"/>
      <point x="744.178" y="133.43" type="line"/>
      <point x="701.102" y="72.544"/>
      <point x="510.676" y="-14.384"/>
      <point x="393.334" y="-14.384" type="qcurve" smooth="yes"/>
      <point x="240.0" y="-14.384"/>
      <point x="70.582" y="142.692"/>
    </contour>
  </outline>
</glyph>
<glyph name="b" format="2">
  <advance width="1304"/>
  <unicode hex="0062"/>
  <outline>
    <contour>
      <point x="158.46" y="0.0" type="line"/>
      <point x="168.422" y="444.3" type="line"/>
      <point x="160.536" y="1362.16" type="line"/>
      <point x="0.10999999999999943" y="1392.16" type="line"/>
      <point x="0.10999999999999943" y="1500.0" type="line"/>
      <point x="369.8" y="1534.0" type="line"/>
      <point x="401.14599999999996" y="1534.0" type="line"/>
      <point x="439.18" y="1496.81" type="line"/>
      <point x="437.526" y="876.186" type="line"/>
      <point x="487.87199999999996" y="948.608"/>
      <point x="663.446" y="1037.992"/>
      <point x="788.02" y="1037.992" type="qcurve" smooth="yes"/>
      <point x="985.9359999999999" y="1037.992"/>
      <point x="1243.388" y="768.186"/>
      <point x="1243.388" y="540.034" type="qcurve" smooth="yes"/>
      <point x="1243.388" y="291.536"/>
      <point x="976.244" y="-12.0"/>
      <point x="741.75" y="-12.0" type="qcurve" smooth="yes"/>
      <point x="638.602" y="-12.0"/>
      <point x="477.606" y="48.0"/>
      <point x="431.952" y="88.346" type="qcurve"/>
      <point x="345.26" y="0.0" type="line"/>
    </contour>
    <contour>
      <point x="430.294" y="481.392" type="line"/>
      <point x="437.87199999999996" y="254.684" type="line"/>
      <point x="468.066" y="198.798"/>
      <point x="598.804" y="116.95"/>
      <point x="686.386" y="116.95" type="qcurve" smooth="yes"/>
      <point x="807.162" y="116.95"/>
      <point x="944.516" y="322.688"/>
      <point x="944.516" y="507.768" type="qcurve" smooth="yes"/>
      <point x="944.516" y="688.0"/>
      <point x="812.66" y="874.97"/>
      <point x="691.04" y="874.97" type="qcurve" smooth="yes"/>
      <point x="601.804" y="874.97"/>
      <point x="475.72" y="795.814"/>
      <point x="438.21799999999996" y="733.62" type="qcurve"/>
    </contour>
  </outline>
</glyph>
<glyph name="e" format="2">
  <advance width="1148"/>
  <unicode hex="0065"/>
  <outline>
    <contour>
      <point x="59.194" y="505.536" type="qcurve" smooth="yes"/>
      <point x="59.194" y="735.338"/>
      <point x="353.258" y="1041.03"/>
      <point x="597.052" y="1041.03" type="qcurve" smooth="yes"/>
      <point x="819.386" y="1041.03"/>
      <point x="1068.72" y="806.148"/>
      <point x="1088.374" y="596.996" type="qcurve"/>
      <point x="1088.374" y="522.81" type="line"/>
      <point x="307.344" y="522.81" type="line"/>
      <point x="307.344" y="631.266" type="line"/>
      <point x="837.334" y="631.266" type="line"/>
      <point x="824.524" y="775.11"/>
      <point x="703.128" y="913.19"/>
      <point x="601.508" y="913.19" type="qcurve" smooth="yes"/>
      <point x="481.846" y="913.19"/>
      <point x="350.606" y="727.334"/>
      <point x="351.606" y="532.456" type="qcurve" smooth="yes"/>
      <point x="352.606" y="328.342"/>
      <point x="529.69" y="129.452"/>
      <point x="687.154" y="129.452" type="qcurve" smooth="yes"/>
      <point x="791.652" y="129.452"/>
      <point x="944.648" y="183.178"/>
      <point x="991.3779999999999" y="223.98399999999998" type="qcurve"/>
      <point x="1050.682" y="148.06799999999998" type="line"/>
      <point x="1001.26" y="78.494"/>
      <point x="788.9259999999999" y="-23.73"/>
      <point x="629.9" y="-23.73" type="qcurve" smooth="yes"/>
      <point x="364.756" y="-23.73"/>
      <point x="59.194" y="250.384"/>
    </contour>
  </outline>
</glyph>
<glyph name="f" format="2">
  <advance width="721"/>
  <unicode hex="0066"/>
  <outline>
    <contour>
      <point x="46.734" y="0.0" type="line"/>
      <point x="46.734" y="93.84" type="line"/>
      <point x="205.738" y="128.84" type="line"/>
      <point x="209.122" y="535.65" type="line"/>
      <point x="207.16" y="863.156" type="line"/>
      <point x="52.620000000000005" y="873.692" type="line"/>
      <point x="52.620000000000005" y="980.532" type="line"/>
      <point x="208.814" y="1001.3" type="line"/>
      <point x="210.738" y="1257.362" type="line" smooth="yes"/>
      <point x="210.7" y="1382.624"/>
      <point x="360.0" y="1535.27"/>
      <point x="493.908" y="1535.27" type="qcurve" smooth="yes"/>
      <point x="556.668" y="1535.27"/>
      <point x="655.078" y="1519.426"/>
      <point x="689.268" y="1507.966" type="qcurve" smooth="yes"/>
      <point x="709.998" y="1500.582" type="line"/>
      <point x="699.534" y="1383.8220000000001" type="line"/>
      <point x="682.956" y="1388.168" type="line" smooth="yes"/>
      <point x="669.918" y="1392.206"/>
      <point x="633.306" y="1397.32"/>
      <point x="612.576" y="1397.32" type="qcurve" smooth="yes"/>
      <point x="548.766" y="1397.32"/>
      <point x="482.34" y="1314.046"/>
      <point x="482.99399999999997" y="1246.236" type="qcurve" smooth="yes"/>
      <point x="483.956" y="998.494" type="line"/>
      <point x="698.88" y="998.494" type="line"/>
      <point x="698.88" y="873.308" type="line"/>
      <point x="483.61" y="873.308" type="line"/>
      <point x="484.572" y="535.65" type="line"/>
      <point x="490.534" y="128.84" type="line"/>
      <point x="674.306" y="93.84" type="line"/>
      <point x="674.306" y="0.0" type="line"/>
    </contour>
  </outline>
</glyph>
<glyph name="g" format="2">
  <advance width="1141"/>
  <unicode hex="0067"/>
  <outline>
    <contour>
      <point x="-1.8819999999999997" y="-256.042" type="qcurve" smooth="yes"/>
      <point x="-1.8819999999999997" y="-168.274"/>
      <point x="137.912" y="-55.7"/>
      <point x="255.086" y="-25.582" type="qcurve"/>
      <point x="329.706" y="-64.312" type="line"/>
      <point x="281.554" y="-93.696"/>
      <point x="220.672" y="-176.27"/>
      <point x="220.672" y="-235.27" type="qcurve" smooth="yes"/>
      <point x="220.672" y="-316.156"/>
      <point x="383.48199999999997" y="-398.468"/>
      <point x="568.992" y="-398.468" type="qcurve" smooth="yes"/>
      <point x="732.49" y="-398.468"/>
      <point x="910.536" y="-317.004"/>
      <point x="910.536" y="-237.232" type="qcurve" smooth="yes"/>
      <point x="910.536" y="-169.768"/>
      <point x="783.11" y="-127.304"/>
      <point x="577.22" y="-124.958" type="qcurve" smooth="yes"/>
      <point x="321.772" y="-121.574"/>
      <point x="71.19800000000001" y="-5.008000000000003"/>
      <point x="71.19800000000001" y="120.878" type="qcurve" smooth="yes"/>
      <point x="71.19800000000001" y="212.338"/>
      <point x="207.544" y="331.954"/>
      <point x="277.658" y="359.878" type="qcurve"/>
      <point x="345.958" y="296.338" type="line"/>
      <point x="297.882" y="272.3"/>
      <point x="229.57" y="218.528"/>
      <point x="229.57" y="169.95" type="qcurve" smooth="yes"/>
      <point x="229.57" y="119.064"/>
      <point x="358.346" y="73.87"/>
      <point x="587.41" y="72.832" type="qcurve" smooth="yes"/>
      <point x="912.888" y="71.102"/>
      <point x="1153.88" y="-46.510000000000005"/>
      <point x="1153.88" y="-175.506" type="qcurve" smooth="yes"/>
      <point x="1153.88" y="-323.08"/>
      <point x="869.93" y="-510.388"/>
      <point x="543.022" y="-510.388" type="qcurve" smooth="yes"/>
      <point x="252.882" y="-510.388"/>
      <point x="-1.8819999999999997" y="-369.004"/>
    </contour>
    <contour>
      <point x="78.388" y="639.034" type="qcurve" smooth="yes"/>
      <point x="78.388" y="819.722"/>
      <point x="325.84" y="1039.3"/>
      <point x="540.672" y="1039.3" type="qcurve" smooth="yes"/>
      <point x="755.812" y="1039.3"/>
      <point x="1006.648" y="833.3"/>
      <point x="1006.994" y="644.034" type="qcurve" smooth="yes"/>
      <point x="1007.34" y="463.692"/>
      <point x="759.85" y="220.114"/>
      <point x="546.364" y="220.114" type="qcurve" smooth="yes"/>
      <point x="331.224" y="220.114"/>
      <point x="78.388" y="447.806"/>
    </contour>
    <contour>
      <point x="335.044" y="647.304" type="qcurve" smooth="yes"/>
      <point x="335.044" y="487.114"/>
      <point x="448.128" y="332.148"/>
      <point x="542.402" y="332.148" type="qcurve" smooth="yes"/>
      <point x="643.292" y="332.148"/>
      <point x="750.414" y="476.882"/>
      <point x="750.414" y="638.034" type="qcurve" smooth="yes"/>
      <point x="750.414" y="775.684"/>
      <point x="637.638" y="915.266"/>
      <point x="544.056" y="915.266" type="qcurve" smooth="yes"/>
      <point x="444.166" y="915.266"/>
      <point x="335.044" y="789.262"/>
    </contour>
    <contour>
      <point x="645.482" y="925.346" type="line"/>
      <point x="630.482" y="1014.878" type="line"/>
      <point x="1140.884" y="1017.646" type="line"/>
      <point x="1140.884" y="868.46" type="line"/>
    </contour>
  </outline>
</glyph>
<glyph name="l" format="2">
  <advance width="704"/>
  <unicode hex="006C"/>
  <outline>
    <contour>
      <point x="67.35" y="0.0" type="line"/>
      <point x="67.35" y="93.84" type="line"/>
      <point x="222.43" y="128.84" type="line"/>
      <point x="224.43" y="527.0" type="line"/>
      <point x="222.43" y="1361.468" type="line"/>
      <point x="46.81" y="1391.468" type="line"/>
      <point x="46.81" y="1500.0" type="line"/>
      <point x="432.77" y="1534.0" type="line"/>
      <point x="464.77" y="1534.0" type="line"/>
      <point x="502.804" y="1496.81" type="line"/>
      <point x="500.804" y="527.0" type="line"/>
      <point x="502.804" y="128.84" type="line"/>
      <point x="653.538" y="93.84" type="line"/>
      <point x="653.538" y="0.0" type="line"/>
    </contour>
  </outline>
</glyph>
<glyph name="p" format="2">
  <advance width="1335"/>
  <unicode hex="0070"/>
  <outline>
    <contour>
      <point x="44.738" y="-480.0" type="line"/>
      <point x="44.738" y="-386.506" type="line"/>
      <point x="187.738" y="-351.506" type="line"/>
      <point x="189.738" y="427.0" type="line"/>
      <point x="187.738" y="847.19" type="line"/>
      <point x="39.392" y="877.19" type="line"/>
      <point x="39.392" y="984.684" type="line"/>
      <point x="412.576" y="1018.684" type="line"/>
      <point x="447.576" y="991.684" type="line"/>
      <point x="466.036" y="877.916" type="line"/>
      <point x="516.036" y="949.3"/>
      <point x="690.572" y="1037.992"/>
      <point x="815.146" y="1037.992" type="qcurve" smooth="yes"/>
      <point x="1013.062" y="1037.992"/>
      <point x="1271.168" y="768.186"/>
      <point x="1271.168" y="540.034" type="qcurve" smooth="yes"/>
      <point x="1271.168" y="291.536"/>
      <point x="1003.37" y="-12.0"/>
      <point x="778.032" y="-12.0" type="qcurve" smooth="yes"/>
      <point x="667.036" y="-12.0"/>
      <point x="509.036" y="48.0"/>
      <point x="464.036" y="89.0" type="qcurve"/>
      <point x="466.036" y="-351.506" type="line"/>
      <point x="624.956" y="-386.506" type="line"/>
      <point x="624.956" y="-480.0" type="line"/>
    </contour>
    <contour>
      <point x="463.69" y="256.646" type="line"/>
      <point x="493.884" y="200.106"/>
      <point x="625.276" y="116.95"/>
      <point x="713.512" y="116.95" type="qcurve" smooth="yes"/>
      <point x="834.288" y="116.95"/>
      <point x="972.296" y="322.688"/>
      <point x="972.296" y="507.768" type="qcurve" smooth="yes"/>
      <point x="972.296" y="688.0"/>
      <point x="839.786" y="874.97"/>
      <point x="718.1659999999999" y="874.97" type="qcurve" smooth="yes"/>
      <point x="630.238" y="874.97"/>
      <point x="502.846" y="795.16"/>
      <point x="464.69" y="732.966" type="qcurve"/>
      <point x="461.344" y="434.958" type="line"/>
    </contour>
  </outline>
</glyph>
<glyph name="q" format="2">
  <advance width="1328"/>
  <unicode hex="0071"/>
  <outline>
    <contour>
      <point x="63.502" y="489.764" type="qcurve" smooth="yes"/>
      <point x="63.502" y="743.452"/>
      <point x="357.414" y="1037.3"/>
      <point x="586.448" y="1037.3" type="qcurve" smooth="yes"/>
      <point x="674.638" y="1037.3"/>
      <point x="833.292" y="990.376"/>
      <point x="884.752" y="949.608" type="qcurve"/>
      <point x="945.212" y="1025.57" type="line"/>
      <point x="1292.628" y="990.57" type="line"/>
      <point x="1292.628" y="883.73" type="line"/>
      <point x="1152.624" y="853.882" type="line"/>
      <point x="1145.97" y="436.65" type="line"/>
      <point x="1147.624" y="-351.506" type="line"/>
      <point x="1296.51" y="-386.506" type="line"/>
      <point x="1296.51" y="-480.0" type="line"/>
      <point x="696.672" y="-480.0" type="line"/>
      <point x="696.672" y="-386.506" type="line"/>
      <point x="866.212" y="-352.198" type="line"/>
      <point x="872.558" y="122.35" type="line"/>
      <point x="817.482" y="62.464"/>
      <point x="642.638" y="-9.0"/>
      <point x="526.448" y="-9.0" type="qcurve" smooth="yes"/>
      <point x="333.376" y="-9.0"/>
      <point x="63.502" y="253.654"/>
    </contour>
    <contour>
      <point x="362.72" y="513.726" type="qcurve" smooth="yes"/>
      <point x="362.72" y="321.384"/>
      <point x="507.344" y="140.874"/>
      <point x="624.812" y="140.874" type="qcurve" smooth="yes"/>
      <point x="708.432" y="140.874"/>
      <point x="836.132" y="207.722"/>
      <point x="874.596" y="263.954" type="qcurve"/>
      <point x="875.904" y="806.232" type="line"/>
      <point x="845.056" y="852.08"/>
      <point x="731.626" y="906.274"/>
      <point x="648.428" y="906.274" type="qcurve" smooth="yes"/>
      <point x="521.998" y="906.274"/>
      <point x="362.72" y="702.912"/>
    </contour>
  </outline>
</glyph>
<glyph name="s" format="2">
  <advance width="984"/>
  <unicode hex="0073"/>
  <outline>
    <contour>
      <point x="54.422" y="0.0" type="line"/>
      <point x="54.422" y="337.27" type="line"/>
      <point x="176.646" y="337.27" type="line"/>
      <point x="188.338" y="282.076" type="line" smooth="yes"/>
      <point x="206.414" y="197.114"/>
      <point x="359.756" y="97.304"/>
      <point x="474.40999999999997" y="97.304" type="qcurve" smooth="yes"/>
      <point x="568.182" y="97.304"/>
      <point x="679.688" y="170.08"/>
      <point x="679.688" y="240.624" type="qcurve" smooth="yes"/>
      <point x="679.688" y="314.936"/>
      <point x="557.916" y="387.594"/>
      <point x="402.912" y="434.556" type="qcurve" smooth="yes"/>
      <point x="220.228" y="489.13"/>
      <point x="84.156" y="632.354"/>
      <point x="84.156" y="756.232" type="qcurve" smooth="yes"/>
      <point x="84.156" y="883.844"/>
      <point x="282.566" y="1041.03"/>
      <point x="468.09" y="1041.03" type="qcurve" smooth="yes"/>
      <point x="558.584" y="1041.03"/>
      <point x="686.728" y="1007.338"/>
      <point x="732.34" y="977.338" type="qcurve"/>
      <point x="749.7239999999999" y="1017.3" type="line"/>
      <point x="853.526" y="1017.3" type="line"/>
      <point x="853.526" y="721.646" type="line"/>
      <point x="730.572" y="721.646" type="line"/>
      <point x="715.956" y="798.384" type="line" smooth="yes"/>
      <point x="705.188" y="848.266"/>
      <point x="579.002" y="919.996"/>
      <point x="491.12" y="919.996" type="qcurve" smooth="yes"/>
      <point x="406.812" y="919.996"/>
      <point x="325.77" y="865.608"/>
      <point x="325.77" y="813.874" type="qcurve" smooth="yes"/>
      <point x="325.77" y="760.524"/>
      <point x="409.31" y="697.098"/>
      <point x="567.002" y="651.3679999999999" type="qcurve" smooth="yes"/>
      <point x="740.7239999999999" y="600.756"/>
      <point x="932.644" y="448.954"/>
      <point x="932.644" y="302.57" type="qcurve" smooth="yes"/>
      <point x="932.644" y="156.228"/>
      <point x="711.31" y="-23.076"/>
      <point x="526.436" y="-23.076" type="qcurve" smooth="yes"/>
      <point x="413.828" y="-23.076"/>
      <point x="252.262" y="20.924"/>
      <point x="193.072" y="66.08" type="qcurve"/>
      <point x="156.84" y="0.0" type="line"/>
    </contour>
  </outline>
</glyph>
<glyph name="z" format="2">
  <advance width="989"/>
  <unicode hex="007A"/>
  <outline>
    <contour>
      <point x="35.46" y="0.0" type="line"/>
      <point x="35.46" y="107.3" type="line"/>
      <point x="614.582" y="884.0" type="line"/>
      <point x="214.722" y="884.0" type="line"/>
      <point x="185.992" y="731.35" type="line"/>
      <point x="62.076" y="731.35" type="line"/>
      <point x="62.076" y="1017.3" type="line"/>
      <point x="938.8" y="1017.3" type="line"/>
      <point x="938.8" y="911.0" type="line"/>
      <point x="355.02" y="133.3" type="line"/>
      <point x="802.5" y="133.3" type="line"/>
      <point x="831.23" y="284.912" type="line"/>
      <point x="955.146" y="284.912" type="line"/>
      <point x="955.146" y="0.0" type="line"/>
    </contour>
  </outline>
</glyph>
<glyph name="bar" format="2">
  <advance width="653"/>
  <unicode hex="007C"/>
  <outline>
    <contour>
      <point x="200.472" y="-538.616" type="line"/>
      <point x="206.586" y="-58.0" type="line"/>
      <point x="216.046" y="250.0" type="line"/>
      <point x="214.046" y="830.0" type="line"/>
      <point x="204.624" y="1138.0" type="line"/>
      <point x="199.164" y="1481.384" type="line"/>
      <point x="456.238" y="1548.616" type="line"/>
      <point x="448.816" y="1138.0" type="line"/>
      <point x="436.74" y="830.0" type="line"/>
      <point x="438.74" y="250.0" type="line"/>
      <point x="449.47" y="-58.0" type="line"/>
      <point x="454.93" y="-471.384" type="line"/>
    </contour>
  </outline>
</glyph>
<glyph name="cent" format="2">
  <advance width="1062"/>
  <unicode hex="00A2"/>
  <outline>
    <contour>
      <point x="73.688" y="487.456" type="qcurve" smooth="yes"/>
      <point x="73.688" y="734.76"/>
      <point x="360.638" y="1041.03"/>
      <point x="609.474" y="1041.03" type="qcurve" smooth="yes"/>
      <point x="686.66" y="1041.03"/>
      <point x="811.812" y="1008.376"/>
      <point x="843.888" y="985.068" type="qcurve"/>
      <point x="871.736" y="1036.3" type="line"/>
      <point x="981.188" y="1008.338" type="line"/>
      <point x="995.112" y="681.992" type="line"/>
      <point x="874.622" y="663.608" type="line"/>
      <point x="857.006" y="731.608" type="line" smooth="yes"/>
      <point x="837.428" y="807.148"/>
      <point x="714.576" y="911.346"/>
      <point x="641.268" y="911.346" type="qcurve" smooth="yes"/>
      <point x="516.454" y="911.346"/>
      <point x="352.99" y="721.034"/>
      <point x="352.99" y="521.844" type="qcurve" smooth="yes"/>
      <point x="352.99" y="322.958"/>
      <point x="541.572" y="129.798"/>
      <point x="698.078" y="129.798" type="qcurve" smooth="yes"/>
      <point x="796.196" y="129.798"/>
      <point x="940.9639999999999" y="195.684"/>
      <point x="993.542" y="248.06799999999998" type="qcurve"/>
      <point x="1053.192" y="172.152" type="line"/>
      <point x="1001.694" y="102.232"/>
      <point x="787.972" y="-23.73"/>
      <point x="619.98" y="-23.73" type="qcurve" smooth="yes"/>
      <point x="377.562" y="-23.73"/>
      <point x="73.688" y="249.114"/>
    </contour>
    <contour>
      <point x="550.12" y="-203.426" type="line"/>
      <point x="550.12" y="52.0" type="line"/>
      <point x="584.04" y="52.0" type="line"/>
      <point x="584.04" y="540.76" type="line"/>
      <point x="688.04" y="498.76" type="line"/>
      <point x="688.04" y="52.0" type="line"/>
      <point x="723.96" y="52.0" type="line"/>
      <point x="723.96" y="-160.0" type="line"/>
    </contour>
    <contour>
      <point x="549.12" y="1183.84" type="line"/>
      <point x="722.96" y="1219.38" type="line"/>
      <point x="722.96" y="998.38" type="line"/>
      <point x="688.04" y="998.38" type="line"/>
      <point x="688.04" y="498.76" type="line"/>
      <point x="584.04" y="540.76" type="line"/>
      <point x="584.04" y="998.38" type="line"/>
      <point x="549.12" y="998.38" type="line"/>
    </contour>
  </outline>
</glyph>
<glyph name="currency" format="2">
  <advance width="1368"/>
  <unicode hex="00A4"/>
  <outline>
    <contour>
      <point x="156.46" y="773.84" type="qcurve" smooth="yes"/>
      <point x="156.46" y="989.11"/>
      <point x="440.384" y="1292.034"/>
      <point x="670.654" y="1292.034" type="qcurve" smooth="yes"/>
      <point x="902.27" y="1292.034"/>
      <point x="1189.194" y="1009.11"/>
      <point x="1189.194" y="779.84" type="qcurve" smooth="yes"/>
      <point x="1189.194" y="565.224"/>
      <point x="907.27" y="255.3"/>
      <point x="676.654" y="255.3" type="qcurve" smooth="yes"/>
      <point x="445.384" y="255.3"/>
      <point x="156.46" y="542.224"/>
    </contour>
    <contour>
      <point x="338.216" y="791.11" type="qcurve" smooth="yes"/>
      <point x="339.216" y="636.334"/>
      <point x="519.878" y="423.132"/>
      <point x="668.654" y="423.132" type="qcurve" smooth="yes"/>
      <point x="828.738" y="423.132"/>
      <point x="1001.092" y="617.064"/>
      <point x="1001.092" y="778.148" type="qcurve" smooth="yes"/>
      <point x="1001.092" y="925.924"/>
      <point x="820.43" y="1118.548"/>
      <point x="670.654" y="1118.548" type="qcurve" smooth="yes"/>
      <point x="508.916" y="1118.548"/>
      <point x="337.216" y="943.54"/>
    </contour>
    <contour>
      <point x="305.962" y="1026.65" type="line"/>
      <point x="46.692" y="1285.92" type="line"/>
      <point x="172.034" y="1418.262" type="line"/>
      <point x="431.304" y="1158.992" type="line"/>
    </contour>
    <contour>
      <point x="1062.346" y="1026.65" type="line"/>
      <point x="937.004" y="1158.992" type="line"/>
      <point x="1196.274" y="1418.262" type="line"/>
      <point x="1321.616" y="1285.92" type="line"/>
    </contour>
    <contour>
      <point x="305.962" y="501.03" type="line"/>
      <point x="431.304" y="368.688" type="line"/>
      <point x="172.034" y="109.418" type="line"/>
      <point x="46.692" y="241.76" type="line"/>
    </contour>
    <contour>
      <point x="1062.346" y="501.03" type="line"/>
      <point x="1321.616" y="241.76" type="line"/>
      <point x="1196.274" y="109.418" type="line"/>
      <point x="937.004" y="368.688" type="line"/>
    </contour>
  </outline>
</glyph>
<glyph name="brokenbar" format="2">
  <advance width="653"/>
  <unicode hex="00A6"/>
  <outline>
    <contour>
      <point x="208.506" y="676.236" type="line"/>
      <point x="214.046" y="903.46" type="line"/>
      <point x="201.354" y="1211.46" type="line"/>
      <point x="189.354" y="1481.384" type="line"/>
      <point x="463.432" y="1548.616" type="line"/>
      <point x="451.432" y="1211.46" type="line"/>
      <point x="436.74" y="903.46" type="line"/>
      <point x="438.394" y="727.62" type="line"/>
    </contour>
    <contour>
      <point x="189.354" y="-538.616" type="line"/>
      <point x="201.354" y="-114.16" type="line"/>
      <point x="216.046" y="193.84" type="line"/>
      <point x="214.392" y="368.76" type="line"/>
      <point x="444.28" y="427.376" type="line"/>
      <point x="438.74" y="193.84" type="line"/>
      <point x="451.432" y="-114.16" type="line"/>
      <point x="463.432" y="-458.958" type="line"/>
    </contour>
  </outline>
</glyph>
<glyph name="plusminus" format="2">
  <advance width="1044"/>
  <unicode hex="00B1"/>
  <outline>
    <contour>
      <point x="74.118" y="593.7139999999999" type="line"/>
      <point x="74.118" y="787.9259999999999" type="line"/>
      <point x="970.296" y="787.9259999999999" type="line"/>
      <point x="970.296" y="593.7139999999999" type="line"/>
    </contour>
    <contour>
      <point x="414.354" y="277.444" type="line"/>
      <point x="414.354" y="1129.048" type="line"/>
      <point x="630.06" y="1129.048" type="line"/>
      <point x="630.06" y="277.444" type="line"/>
    </contour>
    <contour>
      <point x="74.118" y="17.35" type="line"/>
      <point x="74.118" y="202.14" type="line"/>
      <point x="970.296" y="202.14" type="line"/>
      <point x="970.296" y="17.35" type="line"/>
    </contour>
  </outline>
</glyph>
<glyph name="acute" format="2">
  <advance width="1024"/>
  <unicode hex="00B4"/>
  <outline>
    <contour>
      <point x="775.026" y="1477.452" type="qcurve" smooth="yes"/>
      <point x="775.026" y="1431.49"/>
      <point x="731.566" y="1375.996"/>
      <point x="685.722" y="1345.92" type="qcurve" smooth="yes"/>
      <point x="401.266" y="1162.422" type="line"/>
      <point x="322.422" y="1242.574" type="line"/>
      <point x="500.692" y="1455.414" type="line" smooth="yes"/>
      <point x="538.152" y="1501.372"/>
      <point x="625.38" y="1569.638"/>
      <point x="666.878" y="1569.638" type="qcurve" smooth="yes"/>
      <point x="706.76" y="1569.638"/>
      <point x="775.026" y="1515.566"/>
    </contour>
  </outline>
</glyph>
<glyph name="micro" format="2">
  <advance width="1324"/>
  <unicode hex="00B5"/>
  <outline>
    <contour>
      <point x="-34.376" y="-303.16" type="line"/>
      <point x="5.084000000000001" y="-281.16" type="line"/>
      <point x="44.0287085129478" y="-124.0731659482088"/>
      <point x="111.312" y="166.322"/>
      <point x="126.08" y="245.356" type="qcurve" smooth="yes"/>
      <point x="233.582" y="834.11" type="line"/>
      <point x="87.084" y="837.684" type="line"/>
      <point x="91.852" y="945.794" type="line"/>
      <point x="411.158" y="1018.262" type="line"/>
      <point x="474.496" y="1018.262" type="line"/>
      <point x="520.302" y="926.806" type="line"/>
      <point x="404.686" y="337.604" type="line" smooth="yes"/>
      <point x="388.34" y="254.60399999999998"/>
      <point x="436.496" y="187.06799999999998"/>
      <point x="504.846" y="187.06799999999998" type="qcurve" smooth="yes"/>
      <point x="581.238" y="187.06799999999998"/>
      <point x="757.676" y="288.46"/>
      <point x="815.216" y="351.654" type="qcurve"/>
      <point x="930.254" y="943.476" type="line"/>
      <point x="909.49" y="1008.996" type="line"/>
      <point x="1171.008" y="1030.688" type="line"/>
      <point x="1208.51" y="935.08" type="line"/>
      <point x="1100.506" y="430.508" type="line"/>
      <point x="1062.742" y="161.68" type="line"/>
      <point x="1200.818" y="163.064" type="line"/>
      <point x="1201.434" y="60.494" type="line"/>
      <point x="847.44" y="-15.0" type="line"/>
      <point x="798.52" y="69.772" type="line"/>
      <point x="802.022" y="203.582" type="line"/>
      <point x="729.174" y="129.772"/>
      <point x="523.778" y="23.346"/>
      <point x="428.584" y="15.734000000000002" type="qcurve" smooth="yes"/>
      <point x="397.65999999999997" y="13.312000000000001"/>
      <point x="345.238" y="19.046000000000003"/>
      <point x="318.508" y="26.548000000000002" type="qcurve"/>
      <point x="267.044" y="-260.16" type="line"/>
      <point x="413.044" y="-268.16" type="line"/>
      <point x="403.65999999999997" y="-371.0" type="line"/>
      <point x="-12.759999999999998" y="-399.0" type="line"/>
    </contour>
  </outline>
</glyph>
<glyph name="onesuperior" format="2">
  <advance width="767"/>
  <unicode hex="00B9"/>
  <outline>
    <contour>
      <point x="114.0" y="670.0" type="line"/>
      <point x="114.0" y="760.92" type="line"/>
      <point x="297.924" y="790.92" type="line"/>
      <point x="300.924" y="1109.0" type="line"/>
      <point x="297.924" y="1363.16" type="line"/>
      <point x="112.0" y="1383.89" type="line"/>
      <point x="112.0" y="1478.27" type="line"/>
      <point x="468.056" y="1511.27" type="line"/>
      <point x="500.056" y="1476.27" type="line"/>
      <point x="494.056" y="1109.0" type="line"/>
      <point x="496.056" y="790.92" type="line"/>
      <point x="680.98" y="760.92" type="line"/>
      <point x="680.98" y="670.0" type="line"/>
    </contour>
  </outline>
</glyph>
<glyph name="Thorn" format="2">
  <advance width="1398"/>
  <unicode hex="00DE"/>
  <outline>
    <contour>
      <point x="68.16" y="0.0" type="line"/>
      <point x="68.16" y="110.38" type="line"/>
      <point x="265.78" y="147.034" type="line"/>
      <point x="267.78" y="754.0" type="line"/>
      <point x="265.78" y="1341.62" type="line"/>
      <point x="68.16" y="1375.62" type="line"/>
      <point x="68.16" y="1500.0" type="line"/>
      <point x="771.006" y="1500.0" type="line"/>
      <point x="771.006" y="1384.776" type="line"/>
      <point x="557.5" y="1346.852" type="line"/>
      <point x="555.846" y="1256.54" type="line"/>
      <point x="848.37" y="1256.54" type="line" smooth="yes"/>
      <point x="1095.328" y="1256.54"/>
      <point x="1349.134" y="1038.118"/>
      <point x="1349.134" y="825.772" type="qcurve" smooth="yes"/>
      <point x="1349.134" y="598.32"/>
      <point x="1060.952" y="336.164"/>
      <point x="798.808" y="336.164" type="qcurve" smooth="yes"/>
      <point x="693.96" y="336.164"/>
      <point x="532.918" y="354.742"/>
      <point x="474.846" y="365.164" type="qcurve"/>
      <point x="483.846" y="488.118" type="line"/>
      <point x="540.424" y="476.156"/>
      <point x="644.698" y="466.464"/>
      <point x="734.588" y="466.464" type="qcurve" smooth="yes"/>
      <point x="885.52" y="466.464"/>
      <point x="1045.836" y="643.97"/>
      <point x="1044.452" y="819.544" type="qcurve" smooth="yes"/>
      <point x="1043.414" y="971.776"/>
      <point x="887.254" y="1121.24"/>
      <point x="745.246" y="1121.24" type="qcurve" smooth="yes"/>
      <point x="556.846" y="1121.24" type="line"/>
      <point x="554.846" y="677.5" type="line"/>
      <point x="556.846" y="143.418" type="line"/>
      <point x="768.238" y="110.38" type="line"/>
      <point x="768.238" y="0.0" type="line"/>
    </contour>
  </outline>
</glyph>
<glyph name="germandbls" format="2">
  <advance width="1505"/>
  <unicode hex="00DF"/>
  <outline>
    <contour>
      <point x="1226.43" y="1225.46" type="qcurve" smooth="yes"/>
      <point x="1226.43" y="1089.342"/>
      <point x="1088.97" y="967.38"/>
      <point x="989.97" y="931.38" type="qcurve" smooth="yes"/>
      <point x="941.97" y="914.38"/>
      <point x="883.274" y="863.186"/>
      <point x="883.274" y="813.874" type="qcurve" smooth="yes"/>
      <point x="883.274" y="760.524"/>
      <point x="979.434" y="692.52"/>
      <point x="1098.8899999999999" y="656.6" type="qcurve" smooth="yes"/>
      <point x="1271.232" y="605.334"/>
      <point x="1454.578" y="448.954"/>
      <point x="1454.578" y="302.57" type="qcurve" smooth="yes"/>
      <point x="1454.578" y="162.768"/>
      <point x="1242.586" y="-24.384"/>
      <point x="1078.75" y="-24.384" type="qcurve" smooth="yes"/>
      <point x="971.332" y="-24.384"/>
      <point x="827.686" y="26.156"/>
      <point x="770.264" y="66.08" type="qcurve"/>
      <point x="735.0699999999999" y="0.0" type="line"/>
      <point x="633.344" y="0.0" type="line"/>
      <point x="633.344" y="337.27" type="line"/>
      <point x="753.838" y="337.27" type="line"/>
      <point x="765.184" y="282.076" type="line" smooth="yes"/>
      <point x="782.914" y="197.114"/>
      <point x="930.8" y="96.65"/>
      <point x="1030.53" y="96.65" type="qcurve" smooth="yes"/>
      <point x="1104.994" y="96.65"/>
      <point x="1216.846" y="170.08"/>
      <point x="1216.846" y="240.624" type="qcurve" smooth="yes"/>
      <point x="1216.846" y="314.936"/>
      <point x="1098.88" y="387.594"/>
      <point x="968.994" y="431.286" type="qcurve" smooth="yes"/>
      <point x="800.838" y="488.978"/>
      <point x="655.846" y="627.51"/>
      <point x="655.846" y="745.852" type="qcurve" smooth="yes"/>
      <point x="655.846" y="855.852"/>
      <point x="779.846" y="975.772"/>
      <point x="877.766" y="1016.232" type="qcurve" smooth="yes"/>
      <point x="959.074" y="1049.578"/>
      <point x="1024.23" y="1135.232"/>
      <point x="1022.846" y="1210.232" type="qcurve" smooth="yes"/>
      <point x="1021.462" y="1288.042"/>
      <point x="912.538" y="1391.852"/>
      <point x="791.306" y="1391.852" type="qcurve" smooth="yes"/>
      <point x="647.188" y="1391.852"/>
      <point x="494.142" y="1232.236"/>
      <point x="495.45" y="1058.62" type="qcurve"/>
      <point x="499.45" y="527.0" type="line"/>
      <point x="512.45" y="45.0" type="line"/>
      <point x="483.45" y="0.0" type="line"/>
      <point x="61.958" y="0.0" type="line"/>
      <point x="61.958" y="93.84" type="line"/>
      <point x="220.962" y="128.84" type="line"/>
      <point x="224.0" y="527.0" type="line"/>
      <point x="227.0" y="1086.7" type="line" smooth="yes"/>
      <point x="228.0" y="1280.08"/>
      <point x="525.262" y="1522.152"/>
      <point x="780.39" y="1522.152" type="qcurve" smooth="yes"/>
      <point x="987.914" y="1522.152"/>
      <point x="1226.43" y="1361.92"/>
    </contour>
  </outline>
</glyph>
<glyph name="eth" format="2">
  <advance width="1300"/>
  <unicode hex="00F0"/>
  <outline>
    <contour>
      <point x="59.848" y="495.19" type="qcurve" smooth="yes"/>
      <point x="59.848" y="722.916"/>
      <point x="380.448" y="1015.072"/>
      <point x="643.242" y="1015.072" type="qcurve" smooth="yes"/>
      <point x="876.242" y="1015.072"/>
      <point x="1102.6" y="721.0"/>
      <point x="1118.6" y="496.0" type="qcurve"/>
      <point x="942.3" y="496.0" type="line"/>
      <point x="955.38" y="664.114"/>
      <point x="802.942" y="883.502"/>
      <point x="646.702" y="884.54" type="qcurve" smooth="yes"/>
      <point x="503.462" y="885.578"/>
      <point x="354.066" y="705.57"/>
      <point x="355.066" y="513.46" type="qcurve" smooth="yes"/>
      <point x="356.066" y="316.544"/>
      <point x="513.078" y="96.688"/>
      <point x="644.702" y="97.342" type="qcurve" smooth="yes"/>
      <point x="803.17" y="97.996"/>
      <point x="946.916" y="363.0"/>
      <point x="946.916" y="621.0" type="qcurve" smooth="yes"/>
      <point x="946.916" y="956.78"/>
      <point x="586.034" y="1378.35"/>
      <point x="288.034" y="1477.35" type="qcurve"/>
      <point x="345.14" y="1585.384" type="line"/>
      <point x="790.652" y="1463.966"/>
      <point x="1239.75" y="952.0"/>
      <point x="1239.75" y="624.0" type="qcurve" smooth="yes"/>
      <point x="1239.75" y="321.194"/>
      <point x="930.074" y="-23.73"/>
      <point x="644.436" y="-23.73" type="qcurve" smooth="yes"/>
      <point x="380.642" y="-23.73"/>
      <point x="59.848" y="251.118"/>
    </contour>
    <contour>
      <point x="404.7" y="1214.0" type="line"/>
      <point x="966.888" y="1539.536" type="line"/>
      <point x="1031.12" y="1434.62" type="line"/>
      <point x="468.932" y="1108.392" type="line"/>
    </contour>
  </outline>
</glyph>
<glyph name="thorn" format="2">
  <advance width="1307"/>
  <unicode hex="00FE"/>
  <outline>
    <contour>
      <point x="17.27" y="-480.0" type="line"/>
      <point x="17.27" y="-386.506" type="line"/>
      <point x="160.27" y="-351.506" type="line"/>
      <point x="162.27" y="427.0" type="line"/>
      <point x="160.924" y="1361.468" type="line"/>
      <point x="-1.616" y="1391.468" type="line"/>
      <point x="-1.616" y="1500.0" type="line"/>
      <point x="371.264" y="1534.0" type="line"/>
      <point x="403.264" y="1534.0" type="line"/>
      <point x="441.298" y="1496.81" type="line"/>
      <point x="438.568" y="877.916" type="line"/>
      <point x="488.568" y="949.3"/>
      <point x="663.104" y="1037.992"/>
      <point x="787.678" y="1037.992" type="qcurve" smooth="yes"/>
      <point x="985.594" y="1037.992"/>
      <point x="1243.7" y="768.186"/>
      <point x="1243.7" y="540.034" type="qcurve" smooth="yes"/>
      <point x="1243.7" y="291.536"/>
      <point x="975.902" y="-12.0"/>
      <point x="750.564" y="-12.0" type="qcurve" smooth="yes"/>
      <point x="639.568" y="-12.0"/>
      <point x="481.568" y="48.0"/>
      <point x="436.568" y="89.0" type="qcurve"/>
      <point x="438.568" y="-351.506" type="line"/>
      <point x="597.4879999999999" y="-386.506" type="line"/>
      <point x="597.4879999999999" y="-480.0" type="line"/>
    </contour>
    <contour>
      <point x="436.222" y="256.646" type="line"/>
      <point x="466.416" y="200.106"/>
      <point x="597.808" y="116.95"/>
      <point x="686.044" y="116.95" type="qcurve" smooth="yes"/>
      <point x="806.8199999999999" y="116.95"/>
      <point x="944.828" y="322.688"/>
      <point x="944.828" y="507.768" type="qcurve" smooth="yes"/>
      <point x="944.828" y="688.0"/>
      <point x="812.318" y="874.97"/>
      <point x="690.698" y="874.97" type="qcurve" smooth="yes"/>
      <point x="602.77" y="874.97"/>
      <point x="475.378" y="795.16"/>
      <point x="437.222" y="732.966" type="qcurve"/>
      <point x="433.876" y="434.958" type="line"/>
    </contour>
  </outline>
</glyph>
<glyph name="kgreenlandic" format="2">
  <advance width="1297"/>
  <unicode hex="0138"/>
  <outline>
    <contour>
      <point x="60.468" y="0.0" type="line"/>
      <point x="60.468" y="93.84" type="line"/>
      <point x="202.582" y="128.84" type="line"/>
      <point x="204.582" y="528.73" type="line"/>
      <point x="202.582" y="881.54" type="line"/>
      <point x="60.468" y="918.616" type="line"/>
      <point x="60.468" y="1017.3" type="line"/>
      <point x="619.226" y="1017.3" type="line"/>
      <point x="619.226" y="916.54" type="line"/>
      <point x="482.264" y="881.54" type="line"/>
      <point x="480.956" y="522.57" type="line"/>
      <point x="481.226" y="128.84" type="line"/>
      <point x="615.42" y="93.84" type="line"/>
      <point x="615.42" y="0.0" type="line"/>
    </contour>
    <contour>
      <point x="446.496" y="354.844" type="line"/>
      <point x="433.348" y="483.84" type="line"/>
      <point x="880.5" y="880.0" type="line"/>
      <point x="752.808" y="910.0" type="line"/>
      <point x="752.808" y="1017.3" type="line"/>
      <point x="1211.4" y="1017.3" type="line"/>
      <point x="1211.4" y="910.0" type="line"/>
      <point x="1058.522" y="875.0" type="line"/>
    </contour>
    <contour>
      <point x="571.576" y="533.81" type="line"/>
      <point x="766.966" y="706.162" type="line"/>
      <point x="1164.662" y="128.84" type="line"/>
      <point x="1281.278" y="93.84" type="line"/>
      <point x="1281.278" y="0.0" type="line"/>
      <point x="812.284" y="0.0" type="line"/>
      <point x="800.284" y="92.84" type="line"/>
      <point x="855.634" y="124.84" type="line"/>
    </contour>
  </outline>
</glyph>
<glyph name="schwa" format="2">
  <advance width="1148"/>
  <unicode hex="0259"/>
  <outline>
    <contour>
      <point x="1087.686" y="511.764" type="qcurve" smooth="yes"/>
      <point x="1087.686" y="281.962"/>
      <point x="793.622" y="-23.73"/>
      <point x="549.828" y="-23.73" type="qcurve" smooth="yes"/>
      <point x="327.494" y="-23.73"/>
      <point x="78.16" y="211.152"/>
      <point x="58.506" y="420.304" type="qcurve"/>
      <point x="58.506" y="494.49" type="line"/>
      <point x="839.536" y="494.49" type="line"/>
      <point x="839.536" y="386.034" type="line"/>
      <point x="309.546" y="386.034" type="line"/>
      <point x="322.356" y="242.19"/>
      <point x="443.752" y="104.11"/>
      <point x="545.372" y="104.11" type="qcurve" smooth="yes"/>
      <point x="665.034" y="104.11"/>
      <point x="796.274" y="289.966"/>
      <point x="795.274" y="484.844" type="qcurve" smooth="yes"/>
      <point x="794.274" y="688.958"/>
      <point x="613.92" y="887.848"/>
      <point x="455.802" y="887.848" type="qcurve" smooth="yes"/>
      <point x="349.342" y="887.848"/>
      <point x="202.232" y="834.122"/>
      <point x="155.502" y="793.316" type="qcurve"/>
      <point x="96.19800000000001" y="869.232" type="line"/>
      <point x="145.62" y="938.806"/>
      <point x="359.262" y="1041.03"/>
      <point x="532.676" y="1041.03" type="qcurve" smooth="yes"/>
      <point x="776.238" y="1041.03"/>
      <point x="1087.686" y="766.916"/>
    </contour>
  </outline>
</glyph>
<glyph name="doubleprimemod" format="2">
  <advance width="877"/>
  <unicode hex="02BA"/>
  <outline>
    <contour>
      <point x="230.228" y="1502.0" type="line"/>
      <point x="462.824" y="1502.0" type="line"/>
      <point x="316.452" y="959.366" type="line"/>
      <point x="175.076" y="964.366" type="line"/>
    </contour>
    <contour>
      <point x="571.748" y="1502.0" type="line"/>
      <point x="804.344" y="1502.0" type="line"/>
      <point x="657.972" y="959.366" type="line"/>
      <point x="516.596" y="964.366" type="line"/>
    </contour>
  </outline>
</glyph>
<glyph name="circumflex" format="2">
  <advance width="1024"/>
  <unicode hex="02C6"/>
  <outline>
    <contour>
      <point x="512.0" y="1564.908" type="qcurve" smooth="yes"/>
      <point x="548.422" y="1564.908"/>
      <point x="600.688" y="1530.102"/>
      <point x="636.532" y="1483.258" type="qcurve" smooth="yes"/>
      <point x="846.798" y="1227.11" type="line"/>
      <point x="763.262" y="1148.92" type="line"/>
      <point x="512.0" y="1368.418" type="line"/>
      <point x="260.738" y="1148.92" type="line"/>
      <point x="177.202" y="1227.11" type="line"/>
      <point x="387.468" y="1483.258" type="line" smooth="yes"/>
      <point x="430.89" y="1536.064"/>
      <point x="475.578" y="1564.908"/>
    </contour>
  </outline>
</glyph>
<glyph name="ring" format="2">
  <advance width="1024"/>
  <unicode hex="02DA"/>
  <outline>
    <contour>
      <point x="268.392" y="1373.296" type="qcurve" smooth="yes"/>
      <point x="268.392" y="1470.87"/>
      <point x="410.426" y="1607.212"/>
      <point x="512.0" y="1607.212" type="qcurve" smooth="yes"/>
      <point x="613.574" y="1607.212"/>
      <point x="755.608" y="1470.87"/>
      <point x="755.608" y="1373.296" type="qcurve" smooth="yes"/>
      <point x="755.608" y="1275.722"/>
      <point x="613.574" y="1139.38"/>
      <point x="512.0" y="1139.38" type="qcurve" smooth="yes"/>
      <point x="410.426" y="1139.38"/>
      <point x="268.392" y="1275.722"/>
    </contour>
    <contour>
      <point x="401.734" y="1373.296" type="qcurve" smooth="yes"/>
      <point x="401.734" y="1323.836"/>
      <point x="461.54" y="1263.03"/>
      <point x="512.0" y="1263.03" type="qcurve" smooth="yes"/>
      <point x="565.46" y="1263.03"/>
      <point x="622.266" y="1319.49"/>
      <point x="622.266" y="1373.296" type="qcurve" smooth="yes"/>
      <point x="622.266" y="1422.41"/>
      <point x="562.46" y="1483.562"/>
      <point x="512.0" y="1483.562" type="qcurve" smooth="yes"/>
      <point x="458.54" y="1483.562"/>
      <point x="401.734" y="1427.102"/>
    </contour>
  </outline>
</glyph>
<glyph name="ogonek" format="2">
  <advance width="1024"/>
  <unicode hex="02DB"/>
  <outline>
    <contour>
      <point x="435.152" y="-249.996" type="qcurve" smooth="yes"/>
      <point x="435.152" y="-295.802"/>
      <point x="500.072" y="-349.262"/>
      <point x="552.186" y="-349.262" type="qcurve" smooth="yes"/>
      <point x="607.338" y="-349.262"/>
      <point x="724.456" y="-309.646"/>
      <point x="776.916" y="-268.262" type="qcurve"/>
      <point x="830.376" y="-355.376" type="line"/>
      <point x="790.608" y="-400.76"/>
      <point x="624.422" y="-487.874"/>
      <point x="510.924" y="-487.874" type="qcurve" smooth="yes"/>
      <point x="393.966" y="-487.874"/>
      <point x="257.624" y="-390.068"/>
      <point x="257.624" y="-303.916" type="qcurve" smooth="yes"/>
      <point x="257.624" y="-210.958"/>
      <point x="388.274" y="-41.65"/>
      <point x="474.156" y="24.426000000000002" type="qcurve" smooth="yes"/>
      <point x="501.232" y="45.118" type="line"/>
      <point x="590.114" y="-8.611999999999998" type="line"/>
      <point x="572.076" y="-27.304" type="line" smooth="yes"/>
      <point x="499.346" y="-102.65"/>
      <point x="435.152" y="-200.34199999999998"/>
    </contour>
  </outline>
</glyph>
<glyph name="breveinvertedcomb" format="2">
  <advance width="1024"/>
  <unicode hex="030F"/>
  <outline>
    <contour>
      <point x="228.65800000000002" y="1182.464" type="qcurve"/>
      <point x="145.122" y="1232.35" type="line"/>
      <point x="160.468" y="1335.038"/>
      <point x="370.43" y="1524.608"/>
      <point x="511.0" y="1524.608" type="qcurve"/>
      <point x="654.186" y="1524.608"/>
      <point x="864.494" y="1343.342"/>
      <point x="878.878" y="1233.388" type="qcurve"/>
      <point x="793.612" y="1182.118" type="line"/>
      <point x="762.806" y="1244.422"/>
      <point x="615.498" y="1354.422"/>
      <point x="511.308" y="1354.422" type="qcurve"/>
      <point x="406.35" y="1354.422"/>
      <point x="258.696" y="1243.73"/>
    </contour>
  </outline>
</glyph>
<glyph name="horncomb" format="2">
  <advance width="1024"/>
  <unicode hex="031B"/>
  <outline>
    <contour>
      <point x="-1.0" y="1000.0" type="line"/>
      <point x="22.38" y="996.886"/>
      <point x="69.68" y="993.426"/>
      <point x="102.68" y="993.426" type="qcurve" smooth="yes"/>
      <point x="168.68" y="993.426"/>
      <point x="229.14" y="1036.46"/>
      <point x="229.14" y="1088.46" type="qcurve" smooth="yes"/>
      <point x="229.14" y="1123.46"/>
      <point x="217.832" y="1207.308"/>
      <point x="207.14" y="1256.0" type="qcurve"/>
      <point x="332.44" y="1256.0" type="line"/>
      <point x="356.44" y="1206.0"/>
      <point x="383.44" y="1106.0"/>
      <point x="383.44" y="1063.0" type="qcurve" smooth="yes"/>
      <point x="383.44" y="960.198"/>
      <point x="259.216" y="849.434"/>
      <point x="146.798" y="849.434" type="qcurve" smooth="yes"/>
      <point x="108.144" y="849.434"/>
      <point x="33.65" y="861.202"/>
      <point x="-1.0" y="871.7" type="qcurve"/>
    </contour>
  </outline>
</glyph>
<glyph name="Gamma" format="2">
  <advance width="1200"/>
  <unicode hex="0393"/>
  <outline>
    <contour>
      <point x="68.16" y="0.0" type="line"/>
      <point x="68.16" y="110.38" type="line"/>
      <point x="265.78" y="146.688" type="line"/>
      <point x="267.78" y="757.924" type="line"/>
      <point x="265.78" y="1341.62" type="line"/>
      <point x="68.16" y="1375.62" type="line"/>
      <point x="68.16" y="1500.0" type="line"/>
      <point x="1155.892" y="1500.0" type="line"/>
      <point x="1155.892" y="1066.996" type="line"/>
      <point x="1022.474" y="1066.996" type="line"/>
      <point x="982.668" y="1368.16" type="line"/>
      <point x="595.496" y="1368.16" type="line"/>
      <point x="556.846" y="1346.776" type="line"/>
      <point x="556.922" y="760.0" type="line"/>
      <point x="558.922" y="143.418" type="line"/>
      <point x="771.006" y="110.726" type="line"/>
      <point x="771.006" y="0.0" type="line"/>
    </contour>
  </outline>
</glyph>
<glyph name="Theta" format="2">
  <advance width="1782"/>
  <unicode hex="0398"/>
  <outline>
    <contour>
      <point x="895.1659999999999" y="-28.924" type="qcurve" smooth="yes"/>
      <point x="531.566" y="-28.924"/>
      <point x="74.81" y="398.076"/>
      <point x="74.81" y="739.076" type="qcurve" smooth="yes"/>
      <point x="74.81" y="1070.076"/>
      <point x="522.68" y="1522.422"/>
      <point x="890.8199999999999" y="1522.422" type="qcurve" smooth="yes"/>
      <point x="1259.306" y="1522.422"/>
      <point x="1707.176" y="1099.076"/>
      <point x="1707.176" y="754.076" type="qcurve" smooth="yes"/>
      <point x="1707.176" y="425.076"/>
      <point x="1263.652" y="-28.924"/>
    </contour>
    <contour>
      <point x="892.8199999999999" y="111.38" type="qcurve" smooth="yes"/>
      <point x="1133.642" y="111.03399999999999"/>
      <point x="1400.612" y="414.548"/>
      <point x="1400.612" y="748.46" type="qcurve" smooth="yes"/>
      <point x="1400.612" y="1041.798"/>
      <point x="1119.524" y="1376.194"/>
      <point x="892.128" y="1376.194" type="qcurve" smooth="yes"/>
      <point x="651.306" y="1376.194"/>
      <point x="381.72" y="1078.258"/>
      <point x="381.72" y="774.114" type="qcurve" smooth="yes"/>
      <point x="381.72" y="452.742"/>
      <point x="671.538" y="111.726"/>
    </contour>
    <contour>
      <point x="552.58" y="590.1800000000001" type="line"/>
      <point x="552.58" y="883.934" type="line"/>
      <point x="562.58" y="883.934" type="line"/>
      <point x="887.474" y="808.456" type="line"/>
      <point x="897.474" y="808.456" type="line"/>
      <point x="1221.06" y="883.934" type="line"/>
      <point x="1231.06" y="883.934" type="line"/>
      <point x="1231.06" y="590.1800000000001" type="line"/>
      <point x="1221.06" y="590.1800000000001" type="line"/>
      <point x="897.474" y="665.658" type="line"/>
      <point x="889.204" y="665.658" type="line"/>
      <point x="562.58" y="590.1800000000001" type="line"/>
    </contour>
  </outline>
</glyph>
<glyph name="Lambda" format="2">
  <advance width="1511"/>
  <unicode hex="039B"/>
  <outline>
    <contour>
      <point x="-12.89" y="0.0" type="line"/>
      <point x="-12.89" y="109.688" type="line"/>
      <point x="162.654" y="144.34199999999998" type="line"/>
      <point x="327.076" y="597.09" type="line"/>
      <point x="633.362" y="1505.232" type="line"/>
      <point x="872.656" y="1505.232" type="line"/>
      <point x="1182.634" y="627.204" type="line"/>
      <point x="1359.364" y="144.34199999999998" type="line"/>
      <point x="1524.216" y="109.688" type="line"/>
      <point x="1524.216" y="0.0" type="line"/>
      <point x="875.412" y="0.0" type="line"/>
      <point x="875.412" y="109.688" type="line"/>
      <point x="1045.07" y="141.726" type="line"/>
      <point x="905.956" y="562.132" type="line"/>
      <point x="682.362" y="1194.788" type="line"/>
      <point x="453.916" y="560.09" type="line"/>
      <point x="324.38" y="141.072" type="line"/>
      <point x="494.114" y="109.688" type="line"/>
      <point x="494.114" y="0.0" type="line"/>
    </contour>
  </outline>
</glyph>
<glyph name="Pi" format="2">
  <advance width="1770"/>
  <unicode hex="03A0"/>
  <outline>
    <contour>
      <point x="68.16" y="0.0" type="line"/>
      <point x="68.16" y="110.38" type="line"/>
      <point x="265.78" y="145.38" type="line"/>
      <point x="267.78" y="754.0" type="line"/>
      <point x="265.78" y="1341.62" type="line"/>
      <point x="68.16" y="1375.62" type="line"/>
      <point x="68.16" y="1500.0" type="line"/>
      <point x="1701.458" y="1500.0" type="line"/>
      <point x="1701.458" y="1375.62" type="line"/>
      <point x="1503.838" y="1341.62" type="line"/>
      <point x="1501.838" y="754.0" type="line"/>
      <point x="1503.838" y="145.38" type="line"/>
      <point x="1701.458" y="110.38" type="line"/>
      <point x="1701.458" y="0.0" type="line"/>
      <point x="1015.844" y="0.0" type="line"/>
      <point x="1015.844" y="110.38" type="line"/>
      <point x="1212.772" y="145.38" type="line"/>
      <point x="1214.772" y="754.0" type="line"/>
      <point x="1212.772" y="1340.928" type="line"/>
      <point x="880.3679999999999" y="1344.62" type="line"/>
      <point x="555.538" y="1340.928" type="line"/>
      <point x="554.846" y="754.0" type="line"/>
      <point x="556.846" y="145.38" type="line"/>
      <point x="753.774" y="110.38" type="line"/>
      <point x="753.774" y="0.0" type="line"/>
    </contour>
  </outline>
</glyph>
<glyph name="Sigma" format="2">
  <advance width="1264"/>
  <unicode hex="03A3"/>
  <outline>
    <contour>
      <point x="78.304" y="0.0" type="line"/>
      <point x="47.266" y="92.346" type="line"/>
      <point x="545.422" y="711.042" type="line"/>
      <point x="93.962" y="1385.54" type="line"/>
      <point x="93.962" y="1500.0" type="line"/>
      <point x="1202.846" y="1500.0" type="line"/>
      <point x="1202.846" y="1066.996" type="line"/>
      <point x="1069.4279999999999" y="1066.996" type="line"/>
      <point x="1029.622" y="1368.16" type="line"/>
      <point x="458.594" y="1368.16" type="line"/>
      <point x="449.94" y="1357.738" type="line"/>
      <point x="818.842" y="803.718" type="line"/>
      <point x="818.842" y="756.182" type="line"/>
      <point x="332.11199999999997" y="157.798" type="line"/>
      <point x="340.45799999999997" y="147.3" type="line"/>
      <point x="1037.238" y="147.3" type="line"/>
      <point x="1115.854" y="428.726" type="line"/>
      <point x="1253.078" y="428.726" type="line"/>
      <point x="1205.192" y="0.0" type="line"/>
    </contour>
  </outline>
</glyph>
<glyph name="beta" format="2">
  <advance width="1340"/>
  <unicode hex="03B2"/>
  <outline>
    <contour>
      <point x="193.32" y="-480.0" type="line"/>
      <point x="155.552" y="-445.734" type="line"/>
      <point x="163.59" y="240.26" type="line"/>
      <point x="164.898" y="964.08" type="line" smooth="yes"/>
      <point x="165.552" y="1259.624"/>
      <point x="448.772" y="1537.0"/>
      <point x="692.06" y="1537.0" type="qcurve" smooth="yes"/>
      <point x="924.04" y="1537.0"/>
      <point x="1152.18" y="1330.118"/>
      <point x="1152.18" y="1181.08" type="qcurve" smooth="yes"/>
      <point x="1152.18" y="1007.966"/>
      <point x="897.96" y="751.472"/>
      <point x="671.22" y="691.062" type="qcurve" smooth="yes"/>
      <point x="573.246" y="672.252" type="line"/>
      <point x="542.094" y="713.48" type="line"/>
      <point x="601.858" y="924.418" type="line"/>
      <point x="695.444" y="913.878" type="line" smooth="yes"/>
      <point x="1005.854" y="881.646"/>
      <point x="1276.72" y="654.228"/>
      <point x="1276.72" y="458.0" type="qcurve" smooth="yes"/>
      <point x="1276.72" y="237.232"/>
      <point x="980.728" y="-22.0"/>
      <point x="755.12" y="-22.0" type="qcurve"/>
      <point x="628.12" y="-22.0"/>
      <point x="408.478" y="74.342"/>
      <point x="341.668" y="175.616" type="qcurve"/>
      <point x="341.668" y="272.768" type="line"/>
      <point x="404.238" y="272.768" type="line"/>
      <point x="463.162" y="188.878"/>
      <point x="605.938" y="115.334"/>
      <point x="700.254" y="115.334" type="qcurve" smooth="yes"/>
      <point x="831.794" y="115.334"/>
      <point x="993.84" y="293.3"/>
      <point x="993.84" y="438.92" type="qcurve" smooth="yes"/>
      <point x="993.84" y="610.962"/>
      <point x="777.866" y="782.81"/>
      <point x="650.28" y="788.0" type="qcurve"/>
      <point x="664.28" y="834.0" type="line"/>
      <point x="745.094" y="847.536"/>
      <point x="916.6" y="1027.654"/>
      <point x="916.6" y="1166.422" type="qcurve" smooth="yes"/>
      <point x="916.6" y="1294.194"/>
      <point x="798.364" y="1418.81"/>
      <point x="690.132" y="1418.81" type="qcurve" smooth="yes"/>
      <point x="561.09" y="1418.81"/>
      <point x="427.508" y="1236.0"/>
      <point x="428.2" y="1017.0" type="qcurve" smooth="yes"/>
      <point x="430.622" y="145.08" type="line"/>
      <point x="455.698" y="-458.616" type="line"/>
    </contour>
  </outline>
</glyph>
<glyph name="zeta" format="2">
  <advance width="956"/>
  <unicode hex="03B6"/>
  <outline>
    <contour>
      <point x="778.2719999999999" y="-313.0" type="line"/>
      <point x="741.85" y="-125.038" type="line" smooth="yes"/>
      <point x="731.812" y="-72.654"/>
      <point x="704.466" y="-35.848"/>
      <point x="651.588" y="-32.156" type="qcurve" smooth="yes"/>
      <point x="583.452" y="-27.734" type="line" smooth="yes"/>
      <point x="334.0" y="-11.042000000000002"/>
      <point x="59.848" y="186.376"/>
      <point x="59.848" y="383.266" type="qcurve" smooth="yes"/>
      <point x="59.848" y="561.528"/>
      <point x="319.726" y="943.954"/>
      <point x="697.814" y="1349.172" type="qcurve"/>
      <point x="704.354" y="1320.29" type="line"/>
      <point x="134.236" y="1313.02" type="line"/>
      <point x="107.236" y="1347.02" type="line"/>
      <point x="132.924" y="1534.0" type="line"/>
      <point x="951.842" y="1509.848" type="line"/>
      <point x="951.842" y="1343.088" type="line"/>
      <point x="564.814" y="905.934"/>
      <point x="345.758" y="567.174"/>
      <point x="345.066" y="421.946" type="qcurve" smooth="yes"/>
      <point x="344.72" y="301.018"/>
      <point x="509.032" y="187.09"/>
      <point x="703.348" y="178.052" type="qcurve" smooth="yes"/>
      <point x="781.234" y="174.36" type="line" smooth="yes"/>
      <point x="858.614" y="170.63"/>
      <point x="934.876" y="101.44399999999999"/>
      <point x="934.952" y="36.912" type="qcurve"/>
      <point x="885.766" y="-313.0" type="line"/>
    </contour>
  </outline>
</glyph>
<glyph name="iota" format="2">
  <advance width="709"/>
  <unicode hex="03B9"/>
  <anchor x="322.984" y="1017.3" name="GRKtop"/>
  <outline>
    <contour>
      <point x="376.232" y="-10.422" type="line"/>
      <point x="268.122" y="-10.422"/>
      <point x="164.662" y="87.346"/>
      <point x="165.662" y="199.08" type="qcurve" smooth="yes"/>
      <point x="167.662" y="470.0" type="line"/>
      <point x="156.97" y="995.608" type="line"/>
      <point x="426.614" y="1017.992" type="line"/>
      <point x="464.382" y="983.38" type="line"/>
      <point x="445.074" y="470.0" type="line"/>
      <point x="445.41999999999996" y="233.992" type="line" smooth="yes"/>
      <point x="445.41999999999996" y="173.144"/>
      <point x="502.576" y="128.376"/>
      <point x="554.154" y="128.376" type="qcurve" smooth="yes"/>
      <point x="660.922" y="128.376" type="line"/>
      <point x="660.922" y="31.308" type="line"/>
    </contour>
  </outline>
</glyph>
<glyph name="kappa" format="2">
  <advance width="1242"/>
  <unicode hex="03BA"/>
  <outline>
    <contour>
      <point x="163.97" y="0.0" type="line"/>
      <point x="167.662" y="475.236" type="line"/>
      <point x="156.97" y="996.262" type="line"/>
      <point x="426.614" y="1017.992" type="line"/>
      <point x="464.382" y="983.38" type="line"/>
      <point x="445.074" y="444.51" type="line"/>
      <point x="447.074" y="0.0" type="line"/>
    </contour>
    <contour>
      <point x="347.77" y="118.548" type="line"/>
      <point x="347.77" y="324.836" type="line"/>
      <point x="793.728" y="872.916" type="line" smooth="yes"/>
      <point x="847.458" y="939.262"/>
      <point x="977.256" y="1029.452"/>
      <point x="1099.286" y="1031.798" type="qcurve"/>
      <point x="1129.054" y="1000.22" type="line"/>
      <point x="1107.172" y="794.86" type="line"/>
      <point x="1005.4879999999999" y="794.86"/>
      <point x="928.18" y="770.784"/>
      <point x="884.066" y="721.476" type="qcurve" smooth="yes"/>
    </contour>
    <contour>
      <point x="951.276" y="-10.422" type="line"/>
      <point x="886.9" y="-10.422"/>
      <point x="811.022" y="34.114"/>
      <point x="783.174" y="91.962" type="qcurve" smooth="yes"/>
      <point x="580.508" y="509.434" type="line"/>
      <point x="743.058" y="676.642" type="line"/>
      <point x="984.746" y="261.148" type="line" smooth="yes"/>
      <point x="1032.4" y="178.532"/>
      <point x="1086.286" y="134.262"/>
      <point x="1129.016" y="134.262" type="qcurve" smooth="yes"/>
      <point x="1205.856" y="134.262" type="line"/>
      <point x="1205.856" y="32.616" type="line"/>
    </contour>
  </outline>
</glyph>
<glyph name="mu" format="2">
  <advance width="1333"/>
  <unicode hex="03BC"/>
  <outline>
    <contour>
      <point x="180.93200000000002" y="-480.0" type="line"/>
      <point x="143.164" y="-445.734" type="line"/>
      <point x="153.164" y="405.38" type="line"/>
      <point x="142.472" y="996.262" type="line"/>
      <point x="412.116" y="1017.992" type="line"/>
      <point x="449.884" y="983.38" type="line"/>
      <point x="430.576" y="387.042" type="line"/>
      <point x="430.576" y="247.60399999999998"/>
      <point x="519.774" y="153.136"/>
      <point x="608.2" y="153.136" type="qcurve" smooth="yes"/>
      <point x="671.322" y="153.136"/>
      <point x="798.064" y="217.37199999999999"/>
      <point x="846.95" y="285.76" type="qcurve"/>
      <point x="846.95" y="346.798" type="line"/>
      <point x="839.22" y="996.262" type="line"/>
      <point x="1108.864" y="1017.992" type="line"/>
      <point x="1146.632" y="983.38" type="line"/>
      <point x="1125.362" y="346.798" type="line"/>
      <point x="1126.708" y="199.144"/>
      <point x="1165.628" y="134.262"/>
      <point x="1221.202" y="134.262" type="qcurve" smooth="yes"/>
      <point x="1278.548" y="134.262" type="line"/>
      <point x="1278.548" y="32.616" type="line"/>
      <point x="1051.656" y="-10.422" type="line"/>
      <point x="969.702" y="-7.038"/>
      <point x="882.52" y="74.19"/>
      <point x="861.06" y="153.266" type="qcurve"/>
      <point x="860.06" y="153.266" type="line"/>
      <point x="823.406" y="84.848"/>
      <point x="669.356" y="-21.692"/>
      <point x="578.428" y="-21.692" type="qcurve" smooth="yes"/>
      <point x="520.082" y="-21.692"/>
      <point x="428.538" y="24.0"/>
      <point x="406.192" y="58.848" type="qcurve"/>
      <point x="443.31" y="-458.616" type="line"/>
    </contour>
  </outline>
</glyph>
<glyph name="tau" format="2">
  <advance width="1044"/>
  <unicode hex="03C4"/>
  <outline>
    <contour>
      <point x="995.248" y="794.86" type="line"/>
      <point x="18.076" y="818.59" type="line"/>
      <point x="18.076" y="926.43" type="line"/>
      <point x="170.996" y="1002.11" type="line"/>
      <point x="987.362" y="1031.798" type="line"/>
      <point x="1017.13" y="1000.22" type="line"/>
    </contour>
    <contour>
      <point x="549.444" y="-10.422" type="line"/>
      <point x="451.992" y="-10.422"/>
      <point x="344.3" y="109.46"/>
      <point x="355.646" y="274.73" type="qcurve" smooth="yes"/>
      <point x="402.452" y="942.95" type="line"/>
      <point x="621.678" y="942.95" type="line"/>
      <point x="623.408" y="297.418" type="line" smooth="yes"/>
      <point x="623.754" y="189.452"/>
      <point x="678.948" y="128.376"/>
      <point x="759.754" y="128.376" type="qcurve" smooth="yes"/>
      <point x="897.594" y="128.376" type="line"/>
      <point x="897.594" y="29.346" type="line"/>
    </contour>
  </outline>
</glyph>
<glyph name="psi" format="2">
  <advance width="1614"/>
  <unicode hex="03C8"/>
  <outline>
    <contour>
      <point x="776.9259999999999" y="-21.692" type="line"/>
      <point x="461.3" y="-15.806"/>
      <point x="158.354" y="203.34199999999998"/>
      <point x="170.046" y="453.254" type="qcurve" smooth="yes"/>
      <point x="180.97" y="681.962" type="line"/>
      <point x="184.316" y="784.886"/>
      <point x="154.122" y="856.692"/>
      <point x="104.354" y="868.076" type="qcurve" smooth="yes"/>
      <point x="36.97" y="882.422" type="line"/>
      <point x="36.97" y="989.916" type="line"/>
      <point x="306.508" y="1024.262" type="line"/>
      <point x="385.23" y="1024.262"/>
      <point x="460.998" y="902.806"/>
      <point x="458.69" y="797.92" type="qcurve"/>
      <point x="449.11199999999997" y="442.718" type="line" smooth="yes"/>
      <point x="445.15" y="275.216"/>
      <point x="630.352" y="151.368"/>
      <point x="776.9259999999999" y="150.714" type="qcurve"/>
    </contour>
    <contour>
      <point x="918.236" y="-21.346" type="qcurve"/>
      <point x="917.544" y="151.06" type="line"/>
      <point x="1070.746" y="154.86599999999999"/>
      <point x="1262.594" y="346.642"/>
      <point x="1262.594" y="527.262" type="qcurve" smooth="yes"/>
      <point x="1262.594" y="641.992"/>
      <point x="1189.248" y="858.342"/>
      <point x="1112.898" y="963.308" type="qcurve"/>
      <point x="1300.946" y="1050.798" type="line"/>
      <point x="1411.098" y="949.178"/>
      <point x="1543.778" y="697.988"/>
      <point x="1543.778" y="539.262" type="qcurve" smooth="yes"/>
      <point x="1543.778" y="303.456"/>
      <point x="1195.996" y="-13.308"/>
    </contour>
    <contour>
      <point x="713.824" y="-480.0" type="line"/>
      <point x="676.056" y="-445.388" type="line"/>
      <point x="694.63" y="38.882" type="line"/>
      <point x="704.8199999999999" y="38.882" type="line"/>
      <point x="723.2" y="1407.0" type="line"/>
      <point x="905.51" y="1421.038" type="line"/>
      <point x="943.278" y="1386.426" type="line"/>
      <point x="967.852" y="38.882" type="line"/>
      <point x="978.042" y="38.882" type="line"/>
      <point x="996.962" y="-458.616" type="line"/>
    </contour>
  </outline>
</glyph>
<glyph name="Kaisymbol" format="2">
  <advance width="1586"/>
  <unicode hex="03CF"/>
  <outline>
    <contour>
      <point x="68.16" y="0.0" type="line"/>
      <point x="68.16" y="110.38" type="line"/>
      <point x="265.78" y="145.38" type="line"/>
      <point x="267.78" y="754.0" type="line"/>
      <point x="265.78" y="1341.62" type="line"/>
      <point x="68.16" y="1375.62" type="line"/>
      <point x="68.16" y="1500.0" type="line"/>
      <point x="747.234" y="1500.0" type="line"/>
      <point x="747.234" y="1375.62" type="line"/>
      <point x="556.846" y="1341.62" type="line"/>
      <point x="554.846" y="754.0" type="line"/>
      <point x="556.846" y="145.38" type="line"/>
      <point x="746.854" y="110.38" type="line"/>
      <point x="746.854" y="0.0" type="line"/>
    </contour>
    <contour>
      <point x="407.334" y="380.036" type="line"/>
      <point x="407.334" y="562.796" type="line"/>
      <point x="1121.618" y="1333.156" type="line"/>
      <point x="981.192" y="1375.966" type="line"/>
      <point x="981.192" y="1500.0" type="line"/>
      <point x="1486.534" y="1500.0" type="line"/>
      <point x="1486.534" y="1375.966" type="line"/>
      <point x="1308.188" y="1333.156" type="line"/>
      <point x="853.606" y="852.882" type="line"/>
      <point x="815.876" y="812.806" type="line"/>
    </contour>
    <contour>
      <point x="1210.768" y="0.0" type="line"/>
      <point x="694.356" y="776.088" type="line"/>
      <point x="888.6279999999999" y="976.36" type="line"/>
      <point x="1442.176" y="145.38" type="line"/>
      <point x="1610.248" y="110.38" type="line"/>
      <point x="1610.248" y="0.0" type="line"/>
    </contour>
    <contour>
      <point x="845.04" y="-513.46" type="qcurve"/>
      <point x="658.524" y="-513.46"/>
      <point x="341.73" y="-392.894"/>
      <point x="250.464" y="-306.86" type="qcurve"/>
      <point x="301.46" y="-215.48000000000002" type="line"/>
      <point x="375.384" y="-261.362"/>
      <point x="647.49" y="-355.16"/>
      <point x="798.14" y="-355.16" type="qcurve" smooth="yes"/>
      <point x="1051.33" y="-355.16"/>
      <point x="1374.1779999999999" y="-136.004"/>
      <point x="1395.14" y="0.0" type="qcurve"/>
      <point x="1610.248" y="0.0" type="line"/>
      <point x="1576.632" y="-220.582"/>
      <point x="1146.648" y="-513.46"/>
    </contour>
  </outline>
</glyph>
<glyph name="Be" format="2">
  <advance width="1407"/>
  <unicode hex="0411"/>
  <outline>
    <contour>
      <point x="553.808" y="880.536" type="line"/>
      <point x="562.462" y="867.92" type="line"/>
      <point x="813.078" y="867.92" type="line" smooth="yes"/>
      <point x="1080.45" y="867.92"/>
      <point x="1342.56" y="663.4372204899748"/>
      <point x="1342.56" y="447.464" type="qcurve" smooth="yes"/>
      <point x="1342.56" y="247.4015791855332"/>
      <point x="1088.286" y="0.0"/>
      <point x="837.906" y="0.0" type="qcurve" smooth="yes"/>
      <point x="68.16" y="0.0" type="line"/>
      <point x="68.16" y="110.38" type="line"/>
      <point x="265.78" y="145.38" type="line"/>
      <point x="267.78" y="742.228" type="line"/>
      <point x="265.78" y="1341.62" type="line"/>
      <point x="68.16" y="1375.62" type="line"/>
      <point x="68.16" y="1500.0" type="line"/>
      <point x="1211.91" y="1500.0" type="line"/>
      <point x="1211.91" y="1112.244" type="line"/>
      <point x="1085.648" y="1112.244" type="line"/>
      <point x="1049.264" y="1368.16" type="line"/>
      <point x="595.496" y="1368.16" type="line"/>
      <point x="556.846" y="1346.776" type="line"/>
    </contour>
    <contour>
      <point x="554.462" y="729.156" type="line"/>
      <point x="556.462" y="143.84" type="line"/>
      <point x="587.002" y="122.532" type="line"/>
      <point x="725.322" y="122.532" type="line" smooth="yes"/>
      <point x="882.482" y="122.532"/>
      <point x="1042.03" y="282.88446822741037"/>
      <point x="1042.03" y="449.886" type="qcurve" smooth="yes"/>
      <point x="1042.03" y="604.6478287671176"/>
      <point x="877.2896881005072" y="742.118"/>
      <point x="738.394" y="742.118" type="qcurve" smooth="yes"/>
      <point x="563.808" y="742.118" type="line"/>
    </contour>
  </outline>
</glyph>
<glyph name="ghe" format="2">
  <advance width="1013"/>
  <unicode hex="0433"/>
  <guideline x="302.0" y="625.0" angle="90.0" identifier="jHuxcyi1x5"/>
  <guideline x="953.0" y="554.0" angle="90.0" identifier="b1mHk7wgTR"/>
  <guideline x="627.0" y="553.0" angle="90.0" identifier="m4aYe0x4PZ"/>
  <outline>
    <contour>
      <point x="974.23" y="1017.3" type="line"/>
      <point x="977.69" y="648.852" type="line"/>
      <point x="859.698" y="648.852" type="line"/>
      <point x="802.972" y="892.924" type="line"/>
      <point x="491.074" y="892.924" type="line"/>
      <point x="488.728" y="508.65" type="line"/>
      <point x="491.074" y="128.84" type="line"/>
      <point x="656.998" y="93.84" type="line"/>
      <point x="656.998" y="0.0" type="line"/>
      <point x="64.43" y="0.0" type="line"/>
      <point x="64.43" y="93.84" type="line"/>
      <point x="212.43" y="128.84" type="line"/>
      <point x="214.43" y="508.65" type="line"/>
      <point x="212.43" y="888.46" type="line"/>
      <point x="64.43" y="923.46" type="line"/>
      <point x="64.43" y="1017.3" type="line"/>
    </contour>
  </outline>
</glyph>
<glyph name="de" format="2">
  <advance width="1278"/>
  <unicode hex="0434"/>
  <guideline x="302.0" y="625.0" angle="90.0" identifier="jHuxcyi1x5"/>
  <guideline x="953.0" y="554.0" angle="90.0" identifier="b1mHk7wgTR"/>
  <guideline x="627.0" y="553.0" angle="90.0" identifier="m4aYe0x4PZ"/>
  <outline>
    <contour>
      <point x="1107.778" y="-318.0" type="line"/>
      <point x="1015.318" y="0.0" type="line"/>
      <point x="230.03" y="0.0" type="line"/>
      <point x="137.57" y="-318.0" type="line"/>
      <point x="24.810000000000002" y="-318.0" type="line"/>
      <point x="34.81" y="124.376" type="line"/>
      <point x="1210.538" y="124.376" type="line"/>
      <point x="1220.538" y="-318.0" type="line"/>
    </contour>
    <contour>
      <point x="1054.652" y="0.0" type="line"/>
      <point x="776.008" y="0.0" type="line"/>
      <point x="778.354" y="508.65" type="line"/>
      <point x="776.008" y="892.924" type="line"/>
      <point x="440.996" y="892.924" type="line"/>
      <point x="406.186" y="480.574" type="line" smooth="yes"/>
      <point x="396.25165102645684" y="365.5225270533074"/>
      <point x="359.608" y="175.726"/>
      <point x="325.532" y="99.996" type="qcurve"/>
      <point x="149.16" y="99.996" type="line"/>
      <point x="195.62" y="174.228"/>
      <point x="247.35" y="378.65"/>
      <point x="257.312" y="503.494" type="qcurve" smooth="yes"/>
      <point x="289.468" y="888.46" type="line"/>
      <point x="141.468" y="923.46" type="line"/>
      <point x="141.468" y="1017.3" type="line"/>
      <point x="1202.652" y="1017.3" type="line"/>
      <point x="1202.652" y="923.46" type="line"/>
      <point x="1054.652" y="888.46" type="line"/>
      <point x="1052.652" y="508.65" type="line"/>
    </contour>
  </outline>
</glyph>
<glyph name="zhe" format="2">
  <advance width="1846"/>
  <unicode hex="0436"/>
  <guideline x="241.0" y="553.0" angle="90.0" identifier="8KgqZm3A67"/>
  <outline>
    <contour>
      <point x="780.448" y="508.65" type="line"/>
      <point x="778.448" y="888.46" type="line"/>
      <point x="644.444" y="923.46" type="line"/>
      <point x="644.444" y="1017.3" type="line"/>
      <point x="1190.75" y="1017.3" type="line"/>
      <point x="1190.75" y="923.46" type="line"/>
      <point x="1056.746" y="888.46" type="line"/>
      <point x="1054.4" y="508.65" type="line"/>
      <point x="1056.746" y="128.84" type="line"/>
      <point x="1191.404" y="93.84" type="line"/>
      <point x="1191.404" y="0.0" type="line"/>
      <point x="645.098" y="0.0" type="line"/>
      <point x="645.098" y="93.84" type="line"/>
      <point x="778.448" y="128.84" type="line"/>
    </contour>
    <contour>
      <point x="1161.72" y="490.266" type="line"/>
      <point x="1354.954" y="665.234" type="line"/>
      <point x="1715.878" y="128.84" type="line"/>
      <point x="1832.494" y="93.84" type="line"/>
      <point x="1832.494" y="0.0" type="line"/>
      <point x="1427.272" y="0.0" type="line"/>
      <point x="1413.888" y="89.38" type="line"/>
      <point x="1422.888" y="121.38" type="line"/>
    </contour>
    <contour>
      <point x="917.424" y="582.57" type="line"/>
      <point x="1178.256" y="579.916" type="line"/>
      <point x="1441.488" y="880.0" type="line"/>
      <point x="1307.256" y="910.0" type="line"/>
      <point x="1307.256" y="1017.3" type="line"/>
      <point x="1778.9279999999999" y="1017.3" type="line"/>
      <point x="1778.9279999999999" y="910.0" type="line"/>
      <point x="1619.51" y="875.0" type="line"/>
      <point x="1203.6399999999999" y="459.848" type="line"/>
      <point x="917.424" y="458.194" type="line"/>
    </contour>
    <contour>
      <point x="673.474" y="490.266" type="line"/>
      <point x="412.306" y="121.38" type="line"/>
      <point x="421.306" y="89.38" type="line"/>
      <point x="407.922" y="0.0" type="line"/>
      <point x="13.08" y="0.0" type="line"/>
      <point x="13.08" y="93.84" type="line"/>
      <point x="136.89" y="128.84" type="line"/>
      <point x="497.814" y="665.234" type="line"/>
    </contour>
    <contour>
      <point x="917.424" y="582.57" type="line"/>
      <point x="917.424" y="458.194" type="line"/>
      <point x="614.634" y="459.848" type="line"/>
      <point x="199.11" y="875.0" type="line"/>
      <point x="46.266" y="910.0" type="line"/>
      <point x="46.266" y="1017.3" type="line"/>
      <point x="527.938" y="1017.3" type="line"/>
      <point x="527.938" y="910.0" type="line"/>
      <point x="393.706" y="880.0" type="line"/>
      <point x="656.938" y="579.916" type="line"/>
    </contour>
  </outline>
</glyph>
<glyph name="el" format="2">
  <advance width="1284"/>
  <unicode hex="043B"/>
  <guideline x="302.0" y="477.95000000000005" angle="90.0" identifier="jHuxcyi1x5"/>
  <guideline x="953.0" y="554.0" angle="90.0" identifier="b1mHk7wgTR"/>
  <guideline x="627.0" y="553.0" angle="90.0" identifier="m4aYe0x4PZ"/>
  <outline>
    <contour>
      <point x="321.122" y="888.46" type="line"/>
      <point x="287.004" y="479.95" type="line" smooth="yes"/>
      <point x="275.734" y="349.448"/>
      <point x="201.696" y="200.824"/>
      <point x="116.62" y="200.824" type="qcurve" smooth="yes"/>
      <point x="97.62" y="200.824"/>
      <point x="61.620000000000005" y="205.824"/>
      <point x="39.620000000000005" y="212.824" type="qcurve"/>
      <point x="39.620000000000005" y="-1.308" type="line"/>
      <point x="61.867157702561" y="-9.8155788512632"/>
      <point x="102.08" y="-17.346"/>
      <point x="129.308" y="-17.346" type="qcurve" smooth="yes"/>
      <point x="284.456" y="-17.346"/>
      <point x="416.3993066966402" y="212.3440580748126"/>
      <point x="436.532" y="457.68399999999997" type="qcurve" smooth="yes"/>
      <point x="472.65" y="892.924" type="line"/>
      <point x="793.084" y="892.924" type="line"/>
      <point x="795.43" y="508.65" type="line"/>
      <point x="793.084" y="128.84" type="line"/>
      <point x="638.544" y="93.84" type="line"/>
      <point x="638.544" y="0.0" type="line"/>
      <point x="1219.728" y="0.0" type="line"/>
      <point x="1219.728" y="93.84" type="line"/>
      <point x="1071.728" y="128.84" type="line"/>
      <point x="1069.728" y="508.65" type="line"/>
      <point x="1071.728" y="888.46" type="line"/>
      <point x="1219.728" y="923.46" type="line"/>
      <point x="1219.728" y="1017.3" type="line"/>
      <point x="179.662" y="1017.3" type="line"/>
      <point x="179.662" y="923.46" type="line"/>
    </contour>
  </outline>
</glyph>
<glyph name="pe" format="2">
  <advance width="1398"/>
  <unicode hex="043F"/>
  <guideline x="302.0" y="625.0" angle="90.0" identifier="jHuxcyi1x5"/>
  <guideline x="953.0" y="554.0" angle="90.0" identifier="b1mHk7wgTR"/>
  <guideline x="627.0" y="553.0" angle="90.0" identifier="m4aYe0x4PZ"/>
  <outline>
    <contour>
      <point x="214.43" y="508.65" type="line"/>
      <point x="212.43" y="888.46" type="line"/>
      <point x="64.43" y="923.46" type="line"/>
      <point x="64.43" y="1017.3" type="line"/>
      <point x="1333.742" y="1017.3" type="line"/>
      <point x="1333.742" y="923.46" type="line"/>
      <point x="1185.742" y="888.46" type="line"/>
      <point x="1183.742" y="508.65" type="line"/>
      <point x="1185.742" y="128.84" type="line"/>
      <point x="1333.742" y="93.84" type="line"/>
      <point x="1333.742" y="0.0" type="line"/>
      <point x="778.094" y="0.0" type="line"/>
      <point x="778.094" y="93.84" type="line"/>
      <point x="907.098" y="128.84" type="line"/>
      <point x="909.444" y="508.65" type="line"/>
      <point x="907.098" y="892.924" type="line"/>
      <point x="491.074" y="892.924" type="line"/>
      <point x="488.728" y="508.65" type="line"/>
      <point x="491.074" y="128.84" type="line"/>
      <point x="620.078" y="93.84" type="line"/>
      <point x="620.078" y="0.0" type="line"/>
      <point x="64.43" y="0.0" type="line"/>
      <point x="64.43" y="93.84" type="line"/>
      <point x="212.43" y="128.84" type="line"/>
    </contour>
  </outline>
</glyph>
<glyph name="dzhe" format="2">
  <advance width="1398"/>
  <unicode hex="045F"/>
  <guideline x="302.0" y="625.0" angle="90.0" identifier="fhMaqTRb6E"/>
  <guideline x="953.0" y="554.0" angle="90.0" identifier="pLUUi3yULi"/>
  <guideline x="627.0" y="553.0" angle="90.0" identifier="hNrU98WFWt"/>
  <outline>
    <contour>
      <point x="214.43" y="508.65" type="line"/>
      <point x="212.43" y="888.46" type="line"/>
      <point x="64.43" y="923.46" type="line"/>
      <point x="64.43" y="1017.3" type="line"/>
      <point x="620.078" y="1017.3" type="line"/>
      <point x="620.078" y="923.46" type="line"/>
      <point x="491.074" y="888.46" type="line"/>
      <point x="488.728" y="508.65" type="line"/>
      <point x="491.074" y="124.376" type="line"/>
      <point x="907.098" y="124.376" type="line"/>
      <point x="909.444" y="508.65" type="line"/>
      <point x="907.098" y="888.46" type="line"/>
      <point x="778.094" y="923.46" type="line"/>
      <point x="778.094" y="1017.3" type="line"/>
      <point x="1333.742" y="1017.3" type="line"/>
      <point x="1333.742" y="923.46" type="line"/>
      <point x="1185.742" y="888.46" type="line"/>
      <point x="1183.742" y="508.65" type="line"/>
      <point x="1185.742" y="128.84" type="line"/>
      <point x="1333.742" y="93.84" type="line"/>
      <point x="1333.742" y="0.0" type="line"/>
      <point x="64.43" y="0.0" type="line"/>
      <point x="64.43" y="93.84" type="line"/>
      <point x="212.43" y="128.84" type="line"/>
    </contour>
    <contour>
      <point x="809.466" y="0.0" type="line"/>
      <point x="755.466" y="-318.0" type="line"/>
      <point x="642.706" y="-318.0" type="line"/>
      <point x="588.706" y="0.0" type="line"/>
    </contour>
  </outline>
</glyph>
<glyph name="Zhedescender" format="2">
  <advance width="2271"/>
  <unicode hex="0496"/>
  <guideline x="480.0" y="796.0" angle="90.0" identifier="vQLQteAbfW"/>
  <outline>
    <contour>
      <point x="792.478" y="0.0" type="line"/>
      <point x="792.478" y="110.38" type="line"/>
      <point x="990.098" y="145.38" type="line"/>
      <point x="992.098" y="754.0" type="line"/>
      <point x="990.098" y="1341.62" type="line"/>
      <point x="799.018" y="1375.62" type="line"/>
      <point x="799.018" y="1500.0" type="line"/>
      <point x="1471.552" y="1500.0" type="line"/>
      <point x="1471.552" y="1375.62" type="line"/>
      <point x="1281.164" y="1341.62" type="line"/>
      <point x="1279.164" y="754.0" type="line"/>
      <point x="1281.164" y="145.38" type="line"/>
      <point x="1460.792" y="110.38" type="line"/>
      <point x="1460.792" y="0.0" type="line"/>
    </contour>
    <contour>
      <point x="1135.804" y="709.08" type="line"/>
      <point x="1135.804" y="851.46" type="line"/>
      <point x="1442.598" y="846.768" type="line"/>
      <point x="1815.556" y="1333.156" type="line"/>
      <point x="1675.13" y="1375.966" type="line"/>
      <point x="1675.13" y="1500.0" type="line"/>
      <point x="2180.4719999999998" y="1500.0" type="line"/>
      <point x="2180.4719999999998" y="1375.966" type="line"/>
      <point x="2002.126" y="1333.156" type="line"/>
      <point x="1546.97" y="762.646" type="line"/>
      <point x="1489.054" y="709.08" type="line"/>
    </contour>
    <contour>
      <point x="1435.6779999999999" y="720.498" type="line"/>
      <point x="1629.95" y="920.77" type="line"/>
      <point x="2154.346" y="125.3" type="line"/>
      <point x="2154.346" y="0.0" type="line"/>
      <point x="1666.002" y="0.0" type="line"/>
      <point x="1666.002" y="110.38" type="line"/>
      <point x="1813.588" y="145.38" type="line"/>
    </contour>
    <contour>
      <point x="1135.804" y="709.08" type="line"/>
      <point x="764.216" y="709.08" type="line"/>
      <point x="694.456" y="762.646" type="line"/>
      <point x="239.3" y="1333.156" type="line"/>
      <point x="64.75999999999999" y="1375.966" type="line"/>
      <point x="64.75999999999999" y="1500.0" type="line"/>
      <point x="578.14" y="1500.0" type="line"/>
      <point x="578.14" y="1375.966" type="line"/>
      <point x="437.714" y="1333.156" type="line"/>
      <point x="810.672" y="846.768" type="line"/>
      <point x="1135.804" y="851.46" type="line"/>
    </contour>
    <contour>
      <point x="817.592" y="720.498" type="line"/>
      <point x="439.682" y="145.38" type="line"/>
      <point x="587.268" y="110.38" type="line"/>
      <point x="587.268" y="0.0" type="line"/>
      <point x="-23.236" y="0.0" type="line"/>
      <point x="-23.236" y="110.38" type="line"/>
      <point x="126.038" y="145.38" type="line"/>
      <point x="635.662" y="920.77" type="line"/>
    </contour>
    <contour>
      <point x="2044.286" y="125.3" type="line"/>
      <point x="2286.886" y="125.3" type="line"/>
      <point x="2296.886" y="-338.0" type="line"/>
      <point x="2157.586" y="-338.0" type="line"/>
      <point x="2078.206" y="0.0" type="line"/>
      <point x="2044.286" y="0.0" type="line"/>
    </contour>
  </outline>
</glyph>
<glyph name="Kaverticalstrokecyr" format="2">
  <advance width="1824"/>
  <unicode hex="049C"/>
  <guideline x="480.0" y="796.0" angle="90.0" identifier="LxfLwWU0sJ"/>
  <outline>
    <contour>
      <point x="68.16" y="0.0" type="line"/>
      <point x="68.16" y="110.38" type="line"/>
      <point x="265.78" y="145.38" type="line"/>
      <point x="267.78" y="754.0" type="line"/>
      <point x="265.78" y="1341.62" type="line"/>
      <point x="68.16" y="1375.62" type="line"/>
      <point x="68.16" y="1500.0" type="line"/>
      <point x="747.234" y="1500.0" type="line"/>
      <point x="747.234" y="1375.62" type="line"/>
      <point x="556.846" y="1341.62" type="line"/>
      <point x="554.846" y="754.0" type="line"/>
      <point x="556.846" y="145.38" type="line"/>
      <point x="743.394" y="110.38" type="line"/>
      <point x="743.394" y="0.0" type="line"/>
    </contour>
    <contour>
      <point x="818.04" y="709.08" type="line"/>
      <point x="818.04" y="851.46" type="line"/>
      <point x="990.77" y="846.768" type="line"/>
      <point x="1350.268" y="1333.156" type="line"/>
      <point x="1209.842" y="1375.966" type="line"/>
      <point x="1209.842" y="1500.0" type="line"/>
      <point x="1715.184" y="1500.0" type="line"/>
      <point x="1715.184" y="1375.966" type="line"/>
      <point x="1536.838" y="1333.156" type="line"/>
      <point x="1095.142" y="762.646" type="line"/>
      <point x="1037.226" y="709.08" type="line"/>
    </contour>
    <contour>
      <point x="983.85" y="720.498" type="line"/>
      <point x="1178.122" y="920.77" type="line"/>
      <point x="1670.826" y="145.38" type="line"/>
      <point x="1814.6779999999999" y="110.38" type="line"/>
      <point x="1814.6779999999999" y="0.0" type="line"/>
      <point x="1200.714" y="0.0" type="line"/>
      <point x="1200.714" y="110.38" type="line"/>
      <point x="1351.76" y="145.38" type="line"/>
    </contour>
    <contour>
      <point x="899.96" y="1187.768" type="line"/>
      <point x="899.96" y="343.532" type="line"/>
      <point x="736.12" y="343.532" type="line"/>
      <point x="736.12" y="1187.768" type="line"/>
    </contour>
  </outline>
</glyph>
<glyph name="kaverticalstrokecyr" format="2">
  <advance width="1440"/>
  <unicode hex="049D"/>
  <guideline x="241.0" y="553.0" angle="90.0" identifier="lmgRx0QBdK"/>
  <outline>
    <contour>
      <point x="737.348" y="221.118" type="line"/>
      <point x="610.968" y="221.118" type="line"/>
      <point x="610.968" y="792.0" type="line"/>
      <point x="737.348" y="792.0" type="line"/>
    </contour>
    <contour>
      <point x="214.43" y="508.65" type="line"/>
      <point x="212.43" y="888.46" type="line"/>
      <point x="64.43" y="923.46" type="line"/>
      <point x="64.43" y="1017.3" type="line"/>
      <point x="621.808" y="1017.3" type="line"/>
      <point x="621.808" y="923.46" type="line"/>
      <point x="491.074" y="888.46" type="line"/>
      <point x="488.728" y="508.65" type="line"/>
      <point x="491.074" y="128.84" type="line"/>
      <point x="621.808" y="93.84" type="line"/>
      <point x="621.808" y="0.0" type="line"/>
      <point x="64.43" y="0.0" type="line"/>
      <point x="64.43" y="93.84" type="line"/>
      <point x="212.43" y="128.84" type="line"/>
    </contour>
    <contour>
      <point x="761.85" y="490.92" type="line"/>
      <point x="944.43" y="665.234" type="line"/>
      <point x="1313.818" y="128.84" type="line"/>
      <point x="1430.434" y="93.84" type="line"/>
      <point x="1430.434" y="0.0" type="line"/>
      <point x="1018.984" y="0.0" type="line"/>
      <point x="1005.6" y="89.38" type="line"/>
      <point x="1014.6" y="121.38" type="line"/>
    </contour>
    <contour>
      <point x="674.158" y="581.916" type="line"/>
      <point x="777.116" y="579.916" type="line"/>
      <point x="1023.428" y="880.0" type="line"/>
      <point x="881.9639999999999" y="910.0" type="line"/>
      <point x="881.9639999999999" y="1017.3" type="line"/>
      <point x="1366.716" y="1017.3" type="line"/>
      <point x="1366.716" y="910.0" type="line"/>
      <point x="1200.758" y="875.0" type="line"/>
      <point x="806.306" y="459.848" type="line"/>
      <point x="674.158" y="458.194" type="line"/>
    </contour>
  </outline>
</glyph>
<glyph name="Tedescender-cy" format="2">
  <advance width="1356"/>
  <unicode hex="04AC"/>
  <outline>
    <contour>
      <point x="819.402" y="0.0" type="line"/>
      <point x="323.928" y="0.0" type="line"/>
      <point x="323.928" y="110.38" type="line"/>
      <point x="532.202" y="146.034" type="line"/>
      <point x="534.202" y="754.0" type="line"/>
      <point x="533.24" y="1349.544" type="line"/>
      <point x="523.894" y="1368.16" type="line"/>
      <point x="198.84" y="1368.16" type="line"/>
      <point x="162.11" y="1053.384" type="line"/>
      <point x="40.0" y="1053.384" type="line"/>
      <point x="40.0" y="1500.0" type="line"/>
      <point x="1316.162" y="1500.0" type="line"/>
      <point x="1316.162" y="1053.384" type="line"/>
      <point x="1193.706" y="1053.384" type="line"/>
      <point x="1156.976" y="1368.16" type="line"/>
      <point x="841.23" y="1368.16" type="line"/>
      <point x="822.576" y="1349.544" type="line"/>
      <point x="821.614" y="754.0" type="line"/>
      <point x="823.268" y="125.3" type="line"/>
      <point x="1028.0819999999999" y="125.3" type="line"/>
      <point x="1038.0819999999999" y="-338.0" type="line"/>
      <point x="898.782" y="-338.0" type="line"/>
    </contour>
  </outline>
</glyph>
<glyph name="chedescender-cy" format="2">
  <advance width="1383"/>
  <unicode hex="04B7"/>
  <guideline x="302.0" y="625.0" angle="90.0" identifier="jHuxcyi1x5"/>
  <guideline x="953.0" y="554.0" angle="90.0" identifier="b1mHk7wgTR"/>
  <guideline x="627.0" y="553.0" angle="90.0" identifier="m4aYe0x4PZ"/>
  <outline>
    <contour>
      <point x="193.08" y="719.304" type="qcurve" smooth="yes"/>
      <point x="191.08" y="888.46" type="line"/>
      <point x="43.08" y="923.46" type="line"/>
      <point x="43.08" y="1017.3" type="line"/>
      <point x="596.998" y="1017.3" type="line"/>
      <point x="596.998" y="923.46" type="line"/>
      <point x="469.724" y="888.46" type="line"/>
      <point x="467.686" y="721.726" type="line" smooth="yes"/>
      <point x="465.99399999999997" y="606.57"/>
      <point x="573.69" y="515.144"/>
      <point x="697.884" y="515.144" type="qcurve" smooth="yes"/>
      <point x="786.998" y="515.144"/>
      <point x="935.69" y="538.376"/>
      <point x="1020.534" y="568.608" type="qcurve"/>
      <point x="1020.534" y="459.0" type="line"/>
      <point x="930.77" y="425.692"/>
      <point x="742.858" y="394.038"/>
      <point x="615.558" y="394.038" type="qcurve" smooth="yes"/>
      <point x="417.68399999999997" y="394.038"/>
      <point x="195.08" y="549.498"/>
    </contour>
    <contour>
      <point x="1159.51" y="124.376" type="line"/>
      <point x="1315.012" y="124.376" type="line"/>
      <point x="1325.012" y="-318.0" type="line"/>
      <point x="1212.252" y="-318.0" type="line"/>
      <point x="1119.792" y="0.0" type="line"/>
      <point x="719.752" y="0.0" type="line"/>
      <point x="719.752" y="93.84" type="line"/>
      <point x="881.212" y="128.84" type="line"/>
      <point x="883.558" y="508.65" type="line"/>
      <point x="881.212" y="888.46" type="line"/>
      <point x="753.938" y="923.46" type="line"/>
      <point x="753.938" y="1017.3" type="line"/>
      <point x="1307.51" y="1017.3" type="line"/>
      <point x="1307.51" y="923.46" type="line"/>
      <point x="1159.51" y="888.46" type="line"/>
      <point x="1157.51" y="508.65" type="line"/>
    </contour>
  </outline>
</glyph>
<glyph name="Shha" format="2">
  <advance width="1750"/>
  <unicode hex="04BA"/>
  <outline>
    <contour>
      <point x="760.348" y="1500.0" type="line"/>
      <point x="760.348" y="1384.776" type="line"/>
      <point x="556.5" y="1350.122" type="line"/>
      <point x="554.5" y="732.92" type="line"/>
      <point x="556.5" y="154.228" type="line"/>
      <point x="749.968" y="119.536" type="line"/>
      <point x="749.968" y="0.0" type="line"/>
      <point x="68.16" y="0.0" type="line"/>
      <point x="68.16" y="119.536" type="line"/>
      <point x="265.78" y="154.228" type="line"/>
      <point x="267.78" y="746.0" type="line"/>
      <point x="265.78" y="1350.122" type="line"/>
      <point x="68.16" y="1384.776" type="line"/>
      <point x="68.16" y="1500.0" type="line"/>
    </contour>
    <contour>
      <point x="1704.812" y="119.536" type="line"/>
      <point x="1704.812" y="0.0" type="line"/>
      <point x="1022.658" y="0.0" type="line"/>
      <point x="1022.658" y="119.536" type="line"/>
      <point x="1215.472" y="154.228" type="line"/>
      <point x="1216.818" y="436.38" type="line" smooth="yes"/>
      <point x="1217.818" y="616.502"/>
      <point x="1047.072" y="765.274"/>
      <point x="849.444" y="765.274" type="qcurve" smooth="yes"/>
      <point x="732.6280238095304" y="765.274"/>
      <point x="525.022" y="720.662"/>
      <point x="411.14" y="679.164" type="qcurve"/>
      <point x="411.14" y="820.004" type="line"/>
      <point x="528.06" y="865.194"/>
      <point x="756.242" y="915.844"/>
      <point x="931.9259999999999" y="915.844" type="qcurve" smooth="yes"/>
      <point x="1201.888" y="915.844"/>
      <point x="1505.808" y="701.19"/>
      <point x="1506.5" y="431.802" type="qcurve" smooth="yes"/>
      <point x="1507.192" y="154.228" type="line"/>
    </contour>
  </outline>
</glyph>
<glyph name="Schwacyr" format="2">
  <advance width="1583"/>
  <unicode hex="04D8"/>
  <guideline x="255.25" y="857.276" angle="90.0" identifier="UtNSclIhRG"/>
  <guideline x="1358.72" y="841.066" angle="90.0" identifier="hwb5F7EShy"/>
  <outline>
    <contour>
      <point x="228.9" y="668.266" type="line"/>
      <point x="80.156" y="812.722" type="line"/>
      <point x="794.068" y="802.646" type="line"/>
      <point x="1351.768" y="810.646" type="line"/>
      <point x="1351.768" y="668.266" type="line"/>
      <point x="794.068" y="668.266" type="line"/>
    </contour>
    <contour>
      <point x="1508.01" y="754.076" type="qcurve" smooth="yes"/>
      <point x="1508.01" y="425.076"/>
      <point x="1121.52" y="-28.924"/>
      <point x="780.946" y="-28.924" type="qcurve" smooth="yes"/>
      <point x="452.262" y="-28.924"/>
      <point x="74.81" y="378.498"/>
      <point x="74.81" y="712.916" type="qcurve" smooth="yes"/>
      <point x="74.81" y="737.954"/>
      <point x="76.81" y="788.338"/>
      <point x="80.156" y="812.722" type="qcurve"/>
      <point x="386.488" y="804.916" type="line"/>
      <point x="385.834" y="791.262"/>
      <point x="384.834" y="761.608"/>
      <point x="384.834" y="747.608" type="qcurve" smooth="yes"/>
      <point x="384.834" y="450.156"/>
      <point x="590.466" y="115.532"/>
      <point x="778.6" y="115.532" type="qcurve" smooth="yes"/>
      <point x="994.7" y="115.532"/>
      <point x="1194.872" y="423.544"/>
      <point x="1194.872" y="748.46" type="qcurve" smooth="yes"/>
      <point x="1194.872" y="1040.916"/>
      <point x="948.7" y="1379.89"/>
      <point x="700.65" y="1379.89" type="qcurve" smooth="yes"/>
      <point x="552.882" y="1379.89"/>
      <point x="382.954" y="1274.202"/>
      <point x="355.722" y="1159.24" type="qcurve" smooth="yes"/>
      <point x="326.836" y="1034.738" type="line"/>
      <point x="192.768" y="1034.738" type="line"/>
      <point x="192.768" y="1500.0" type="line"/>
      <point x="307.182" y="1500.0" type="line"/>
      <point x="338.49" y="1424.768" type="line"/>
      <point x="396.76" y="1464.114"/>
      <point x="596.95" y="1520.0"/>
      <point x="738.528" y="1520.0" type="qcurve" smooth="yes"/>
      <point x="1091.87" y="1520.0"/>
      <point x="1508.01" y="1103.228"/>
    </contour>
  </outline>
</glyph>
<glyph name="dagger" format="2">
  <advance width="989"/>
  <unicode hex="2020"/>
  <outline>
    <contour>
      <point x="469.0" y="-540.0" type="line"/>
      <point x="384.08" y="-58.0" type="line"/>
      <point x="415.0" y="550.0" type="line"/>
      <point x="413.0" y="830.0" type="line"/>
      <point x="374.08" y="1438.0" type="line"/>
      <point x="431.0" y="1504.038" type="line"/>
      <point x="531.76" y="1506.0" type="line"/>
      <point x="584.68" y="1438.0" type="line"/>
      <point x="553.76" y="830.0" type="line"/>
      <point x="555.76" y="550.0" type="line"/>
      <point x="584.68" y="-58.0" type="line"/>
      <point x="509.76" y="-540.0" type="line"/>
    </contour>
    <contour>
      <point x="72.0" y="845.08" type="line"/>
      <point x="72.0" y="1000.0" type="line"/>
      <point x="485.38" y="992.0" type="line"/>
      <point x="916.76" y="1000.0" type="line"/>
      <point x="916.76" y="845.08" type="line"/>
      <point x="485.38" y="849.08" type="line"/>
    </contour>
  </outline>
</glyph>
<glyph name="guilsinglright" format="2">
  <advance width="873"/>
  <unicode hex="203A"/>
  <outline>
    <contour>
      <point x="841.684" y="587.308" type="line"/>
      <point x="760.798" y="538.616"/>
      <point x="263.798" y="227.464"/>
      <point x="195.60399999999998" y="183.848" type="qcurve" smooth="yes"/>
      <point x="113.494" y="130.852"/>
      <point x="24.573999999999998" y="255.532"/>
      <point x="102.684" y="309.144" type="qcurve" smooth="yes"/>
      <point x="212.022" y="384.562"/>
      <point x="526.89" y="587.152"/>
      <point x="558.274" y="604.536" type="qcurve"/>
      <point x="527.582" y="625.152"/>
      <point x="190.646" y="850.814"/>
      <point x="98.684" y="914.468" type="qcurve" smooth="yes"/>
      <point x="21.92" y="967.118"/>
      <point x="96.338" y="1091.224"/>
      <point x="176.60399999999998" y="1047.688" type="qcurve" smooth="yes"/>
      <point x="240.874" y="1013.342"/>
      <point x="766.684" y="682.228"/>
      <point x="841.684" y="634.228" type="qcurve"/>
    </contour>
  </outline>
</glyph>
<glyph name="colonsign" format="2">
  <advance width="1356"/>
  <unicode hex="20A1"/>
  <outline>
    <contour>
      <point x="96.7" y="691.0" type="qcurve" smooth="yes"/>
      <point x="96.7" y="1014.106"/>
      <point x="476.92" y="1448.0"/>
      <point x="825.14" y="1448.0" type="qcurve" smooth="yes"/>
      <point x="1034.14" y="1448.0"/>
      <point x="1319.98" y="1209.0"/>
      <point x="1326.98" y="993.0" type="qcurve"/>
      <point x="1173.68" y="993.0" type="line"/>
      <point x="1162.95" y="1137.89"/>
      <point x="1009.372" y="1312.662"/>
      <point x="825.98" y="1312.662" type="qcurve" smooth="yes"/>
      <point x="624.1659999999999" y="1312.662"/>
      <point x="382.12" y="1009.0"/>
      <point x="384.12" y="728.0" type="qcurve" smooth="yes"/>
      <point x="386.12" y="457.0"/>
      <point x="634.706" y="179.38"/>
      <point x="830.094" y="179.38" type="qcurve" smooth="yes"/>
      <point x="966.06" y="179.38"/>
      <point x="1180.258" y="286.68399999999997"/>
      <point x="1240.258" y="367.878" type="qcurve"/>
      <point x="1336.6" y="277.0" type="line"/>
      <point x="1262.6" y="169.0"/>
      <point x="980.6" y="18.0"/>
      <point x="814.68" y="18.0" type="qcurve" smooth="yes"/>
      <point x="452.578" y="18.0"/>
      <point x="96.7" y="415.62"/>
    </contour>
    <contour>
      <point x="605.254" y="-149.692" type="line"/>
      <point x="663.06" y="86.654" type="line"/>
      <point x="676.482" y="81.654" type="line"/>
      <point x="859.592" y="844.84" type="line"/>
      <point x="977.128" y="776.186" type="line"/>
      <point x="804.402" y="54.654" type="line"/>
      <point x="819.824" y="50.0" type="line"/>
      <point x="774.71" y="-137.346" type="line"/>
    </contour>
    <contour>
      <point x="1014.592" y="1567.0" type="line"/>
      <point x="1182.048" y="1567.0" type="line"/>
      <point x="1125.474" y="1329.392" type="line"/>
      <point x="1110.36" y="1333.392" type="line"/>
      <point x="977.128" y="776.186" type="line"/>
      <point x="859.592" y="844.84" type="line"/>
      <point x="982.786" y="1361.046" type="line"/>
      <point x="967.364" y="1366.046" type="line"/>
    </contour>
    <contour>
      <point x="330.368" y="-86.266" type="line"/>
      <point x="403.216" y="197.168" type="line"/>
      <point x="416.638" y="192.168" type="line"/>
      <point x="573.052" y="844.84" type="line"/>
      <point x="690.588" y="776.186" type="line"/>
      <point x="544.558" y="165.168" type="line"/>
      <point x="559.98" y="160.514" type="line"/>
      <point x="499.824" y="-73.92" type="line"/>
    </contour>
    <contour>
      <point x="728.052" y="1567.0" type="line"/>
      <point x="895.508" y="1567.0" type="line"/>
      <point x="848.01" y="1372.312" type="line"/>
      <point x="832.896" y="1376.312" type="line"/>
      <point x="690.588" y="776.186" type="line"/>
      <point x="573.052" y="844.84" type="line"/>
      <point x="700.09" y="1384.346" type="line"/>
      <point x="684.668" y="1389.346" type="line"/>
    </contour>
  </outline>
</glyph>
<glyph name="euro" format="2">
  <advance width="1191"/>
  <unicode hex="20AC"/>
  <outline>
    <contour>
      <point x="204.0" y="746.0" type="qcurve" smooth="yes"/>
      <point x="204.0" y="1141.464"/>
      <point x="561.06" y="1520.0"/>
      <point x="818.12" y="1520.0" type="qcurve" smooth="yes"/>
      <point x="912.66" y="1520.0"/>
      <point x="1076.572" y="1448.152"/>
      <point x="1133.34" y="1378.0" type="qcurve"/>
      <point x="1066.34" y="1283.7" type="line"/>
      <point x="1014.842" y="1332.046"/>
      <point x="914.5" y="1372.7"/>
      <point x="837.306" y="1372.7" type="qcurve" smooth="yes"/>
      <point x="670.306" y="1372.7"/>
      <point x="492.26" y="1088.7"/>
      <point x="493.26" y="772.0" type="qcurve" smooth="yes"/>
      <point x="494.26" y="450.0"/>
      <point x="678.808" y="103.75999999999999"/>
      <point x="850.04" y="103.75999999999999" type="qcurve" smooth="yes"/>
      <point x="926.804" y="103.75999999999999"/>
      <point x="1052.96" y="160.3"/>
      <point x="1103.534" y="216.338" type="qcurve"/>
      <point x="1162.34" y="133.0" type="line"/>
      <point x="1102.804" y="54.346"/>
      <point x="931.39" y="-28.962"/>
      <point x="789.892" y="-28.962" type="qcurve" smooth="yes"/>
      <point x="532.608" y="-28.962"/>
      <point x="204.0" y="355.034"/>
    </contour>
    <contour>
      <point x="70.0" y="851.08" type="line"/>
      <point x="97.46" y="1000.92" type="line"/>
      <point x="990.88" y="1000.92" type="line"/>
      <point x="1024.34" y="851.08" type="line"/>
    </contour>
    <contour>
      <point x="56.46" y="524.08" type="line"/>
      <point x="49.0" y="673.92" type="line"/>
      <point x="1013.34" y="673.92" type="line"/>
      <point x="979.88" y="524.08" type="line"/>
    </contour>
  </outline>
</glyph>
<glyph name="guarani" format="2">
  <advance width="1532"/>
  <unicode hex="20B2"/>
  <outline>
    <contour>
      <point x="80.0" y="744.0" type="qcurve" smooth="yes"/>
      <point x="80.0" y="1078.494"/>
      <point x="503.06" y="1520.0"/>
      <point x="829.196" y="1520.0" type="qcurve" smooth="yes"/>
      <point x="1062.196" y="1520.0"/>
      <point x="1376.196" y="1286.0"/>
      <point x="1392.196" y="1058.0" type="qcurve"/>
      <point x="1225.516" y="1058.0" type="line"/>
      <point x="1201.478" y="1204.696"/>
      <point x="1010.668" y="1373.586"/>
      <point x="827.968" y="1373.586" type="qcurve" smooth="yes"/>
      <point x="598.116" y="1373.586"/>
      <point x="367.956" y="1041.0"/>
      <point x="369.956" y="768.0" type="qcurve" smooth="yes"/>
      <point x="371.956" y="475.0"/>
      <point x="664.356" y="125.84"/>
      <point x="856.356" y="125.84" type="qcurve" smooth="yes"/>
      <point x="1012.436" y="125.84"/>
      <point x="1207.376" y="231.456"/>
      <point x="1207.376" y="353.0" type="qcurve" smooth="yes"/>
      <point x="1207.376" y="398.0" type="line" smooth="yes"/>
      <point x="1207.376" y="470.0"/>
      <point x="1117.296" y="545.54"/>
      <point x="982.676" y="559.54" type="qcurve"/>
      <point x="1005.676" y="671.46" type="line"/>
      <point x="1409.196" y="671.46" type="line"/>
      <point x="1437.196" y="215.16" type="line"/>
      <point x="1362.234" y="121.928"/>
      <point x="1044.508" y="-17.844"/>
      <point x="827.9" y="-17.844" type="qcurve" smooth="yes"/>
      <point x="537.224" y="-17.844"/>
      <point x="80.0" y="380.16"/>
    </contour>
    <contour>
      <point x="493.20799999999997" y="-132.034" type="line"/>
      <point x="552.976" y="86.0" type="line"/>
      <point x="570.976" y="81.0" type="line"/>
      <point x="776.976" y="871.0" type="line"/>
      <point x="895.356" y="803.0" type="line"/>
      <point x="702.356" y="54.0" type="line"/>
      <point x="722.356" y="50.0" type="line"/>
      <point x="676.588" y="-119.03399999999999" type="line"/>
    </contour>
    <contour>
      <point x="949.014" y="1623.536" type="line"/>
      <point x="1130.394" y="1623.536" type="line"/>
      <point x="1076.356" y="1424.0" type="line"/>
      <point x="1055.356" y="1428.0" type="line"/>
      <point x="895.356" y="803.0" type="line"/>
      <point x="776.976" y="871.0" type="line"/>
      <point x="924.976" y="1455.0" type="line"/>
      <point x="904.976" y="1460.0" type="line"/>
    </contour>
  </outline>
</glyph>
<glyph name="hryvnia" format="2">
  <advance width="1223"/>
  <unicode hex="20B4"/>
  <outline>
    <contour>
      <point x="1138.364" y="264.042" type="line"/>
      <point x="1062.8868768363063" y="133.4575498006056"/>
      <point x="814.676" y="-7.649999999999999"/>
      <point x="618.14" y="-7.649999999999999" type="qcurve" smooth="yes"/>
      <point x="373.532" y="-7.649999999999999"/>
      <point x="133.886" y="212.93146762589478"/>
      <point x="133.886" y="376.844" type="qcurve" smooth="yes"/>
      <point x="133.886" y="432.92"/>
      <point x="152.7572977271986" y="529.9890999998694"/>
      <point x="172.0" y="571.802" type="qcurve"/>
      <point x="200.422" y="594.46" type="line"/>
      <point x="253.46" y="671.802"/>
      <point x="437.878" y="797.452"/>
      <point x="551.988" y="845.988" type="qcurve" smooth="yes"/>
      <point x="634.616" y="881.57"/>
      <point x="715.514" y="918.422"/>
      <point x="745.67" y="942.156" type="qcurve"/>
      <point x="731.99" y="965.886" type="line"/>
      <point x="780.1105691229426" y="1008.4887437376992"/>
      <point x="814.788" y="1111.8563859649225"/>
      <point x="814.788" y="1177.916" type="qcurve" smooth="yes"/>
      <point x="814.788" y="1266.2447403315027"/>
      <point x="707.856" y="1370.308"/>
      <point x="604.118" y="1370.308" type="qcurve" smooth="yes"/>
      <point x="508.228" y="1370.308"/>
      <point x="355.84" y="1305.616"/>
      <point x="299.726" y="1254.89" type="qcurve"/>
      <point x="214.73" y="1376.806" type="line"/>
      <point x="296.228" y="1442.65"/>
      <point x="505.65" y="1509.996"/>
      <point x="634.76" y="1509.996" type="qcurve" smooth="yes"/>
      <point x="829.946" y="1509.996"/>
      <point x="1080.284" y="1315.5299904306087"/>
      <point x="1080.284" y="1132.27" type="qcurve" smooth="yes"/>
      <point x="1080.284" y="1077.23932984292"/>
      <point x="1057.5936433989318" y="983.0100574731766"/>
      <point x="1034.246" y="944.16" type="qcurve"/>
      <point x="1000.288" y="917.696" type="line"/>
      <point x="953.634" y="858.814"/>
      <point x="794.79" y="763.548"/>
      <point x="682.908" y="719.818" type="qcurve" smooth="yes"/>
      <point x="594.976" y="685.122"/>
      <point x="480.96799999999996" y="618.616"/>
      <point x="444.774" y="576.958" type="qcurve"/>
      <point x="457.108" y="556.342" type="line"/>
      <point x="431.65582003271237" y="519.0677021966428"/>
      <point x="408.922" y="429.8454150943344"/>
      <point x="408.922" y="374.62" type="qcurve" smooth="yes"/>
      <point x="408.922" y="249.9164600938998"/>
      <point x="544.276" y="131.34199999999998"/>
      <point x="654.702" y="131.34199999999998" type="qcurve" smooth="yes"/>
      <point x="784.478" y="131.34199999999998"/>
      <point x="965.6376032331734" y="260.2092493634826"/>
      <point x="1017.52" y="354.688" type="qcurve"/>
    </contour>
    <contour>
      <point x="43.08" y="667.0" type="line"/>
      <point x="1179.322" y="667.0" type="line"/>
      <point x="1155.204" y="520.62" type="line"/>
      <point x="63.274" y="520.62" type="line"/>
    </contour>
    <contour>
      <point x="63.274" y="1004.38" type="line"/>
      <point x="1155.204" y="1004.38" type="line"/>
      <point x="1179.976" y="858.0" type="line"/>
      <point x="43.08" y="858.0" type="line"/>
    </contour>
  </outline>
</glyph>
<glyph name="f_f_l" format="2">
  <advance width="2127"/>
  <unicode hex="FB04"/>
  <outline>
    <contour>
      <point x="46.734" y="0.0" type="line"/>
      <point x="46.734" y="93.84" type="line"/>
      <point x="205.738" y="128.84" type="line"/>
      <point x="209.122" y="535.65" type="line"/>
      <point x="207.16" y="857.924" type="line"/>
      <point x="57.620000000000005" y="873.038" type="line"/>
      <point x="49.35" y="980.532" type="line"/>
      <point x="208.814" y="1001.3" type="line"/>
      <point x="210.738" y="1184.388" type="line" smooth="yes"/>
      <point x="212.008" y="1333.194"/>
      <point x="376.54" y="1492.38"/>
      <point x="510.448" y="1492.38" type="qcurve" smooth="yes"/>
      <point x="573.208" y="1492.38"/>
      <point x="682.736" y="1475.228"/>
      <point x="718.888" y="1464.422" type="qcurve" smooth="yes"/>
      <point x="744.196" y="1457.038" type="line"/>
      <point x="733.732" y="1333.084" type="line"/>
      <point x="714.538" y="1339.392" type="line" smooth="yes"/>
      <point x="694.96" y="1346.046"/>
      <point x="650.5" y="1354.43"/>
      <point x="629.116" y="1354.43" type="qcurve" smooth="yes"/>
      <point x="562.036" y="1354.43"/>
      <point x="482.34" y="1269.004"/>
      <point x="482.99399999999997" y="1169.802" type="qcurve" smooth="yes"/>
      <point x="483.956" y="998.494" type="line"/>
      <point x="923.2" y="998.494" type="line"/>
      <point x="925.124" y="1276.982" type="line" smooth="yes"/>
      <point x="925.086" y="1395.704"/>
      <point x="1077.846" y="1535.27"/>
      <point x="1211.754" y="1535.27" type="qcurve" smooth="yes"/>
      <point x="1254.442" y="1535.27"/>
      <point x="1344.628" y="1526.578"/>
      <point x="1380.202" y="1519.194" type="qcurve" smooth="yes"/>
      <point x="1451.164" y="1503.54" type="line"/>
      <point x="1852.314" y="1534.0" type="line"/>
      <point x="1891.0439999999999" y="1532.692" type="line"/>
      <point x="1925.808" y="1496.156" type="line"/>
      <point x="1923.808" y="527.0" type="line"/>
      <point x="1925.808" y="128.84" type="line"/>
      <point x="2076.542" y="93.84" type="line"/>
      <point x="2076.542" y="0.0" type="line"/>
      <point x="1503.434" y="0.0" type="line"/>
      <point x="1503.434" y="93.84" type="line"/>
      <point x="1645.434" y="128.84" type="line"/>
      <point x="1647.434" y="527.0" type="line"/>
      <point x="1645.434" y="1373.894" type="line"/>
      <point x="1407.22" y="1396.742" type="line" smooth="yes"/>
      <point x="1393.296" y="1398.396"/>
      <point x="1354.726" y="1400.78"/>
      <point x="1340.802" y="1400.78" type="qcurve" smooth="yes"/>
      <point x="1269.726" y="1400.78"/>
      <point x="1197.38" y="1333.666"/>
      <point x="1197.38" y="1265.856" type="qcurve" smooth="yes"/>
      <point x="1198.342" y="998.494" type="line"/>
      <point x="1479.152" y="998.494" type="line"/>
      <point x="1479.152" y="880.924" type="line"/>
      <point x="1197.996" y="872.0" type="line"/>
      <point x="1198.958" y="535.65" type="line"/>
      <point x="1209.498" y="128.84" type="line"/>
      <point x="1367.658" y="93.84" type="line"/>
      <point x="1367.658" y="0.0" type="line"/>
      <point x="784.2" y="0.0" type="line"/>
      <point x="784.2" y="93.84" type="line"/>
      <point x="920.124" y="128.84" type="line"/>
      <point x="923.508" y="535.65" type="line"/>
      <point x="921.546" y="850.73" type="line"/>
      <point x="905.318" y="870.692" type="line"/>
      <point x="483.61" y="875.27" type="line"/>
      <point x="484.572" y="535.65" type="line"/>
      <point x="495.11199999999997" y="128.84" type="line"/>
      <point x="647.386" y="93.84" type="line"/>
      <point x="647.386" y="0.0" type="line"/>
    </contour>
  </outline>
</glyph>
<glyph name="El.bgr" format="2">
  <advance width="1499"/>
  <outline>
    <contour>
      <point x="1515.166" y="118.844" type="line"/>
      <point x="1515.166" y="0.0" type="line"/>
      <point x="879.442" y="0.0" type="line"/>
      <point x="879.442" y="118.844" type="line"/>
      <point x="1041.906" y="157.422" type="line"/>
      <point x="852.898" y="683.776" type="line"/>
      <point x="661.16" y="1201.982" type="line"/>
      <point x="476.228" y="685.658" type="line"/>
      <point x="294.95" y="152.844" type="line"/>
      <point x="471.224" y="118.844" type="line"/>
      <point x="471.224" y="0.0" type="line"/>
      <point x="-29.240000000000002" y="0.0" type="line"/>
      <point x="-29.240000000000002" y="118.844" type="line"/>
      <point x="139.764" y="156.114" type="line"/>
      <point x="347.426" y="731.814" type="line"/>
      <point x="622.624" y="1505.232" type="line"/>
      <point x="861.918" y="1505.232" type="line"/>
      <point x="1136.116" y="753.426" type="line"/>
      <point x="1356.854" y="156.114" type="line"/>
    </contour>
  </outline>
</glyph>
<glyph name="be.locl" format="2">
  <advance width="1298"/>
  <outline>
    <contour>
      <point x="356.796" y="513.08" type="qcurve" smooth="yes"/>
      <point x="357.7872407056238" y="323.5482111121672"/>
      <point x="514.808" y="97.342"/>
      <point x="646.432" y="97.342" type="qcurve" smooth="yes"/>
      <point x="788.018" y="97.342"/>
      <point x="938.414" y="302.3626561679642"/>
      <point x="938.414" y="499.08" type="qcurve" smooth="yes"/>
      <point x="938.414" y="681.1737237569164"/>
      <point x="781.056" y="882.472"/>
      <point x="648.432" y="882.472" type="qcurve" smooth="yes"/>
      <point x="505.192" y="882.472"/>
      <point x="355.80594229097" y="700.0278880579656"/>
    </contour>
    <contour>
      <point x="60.54" y="494.81" type="qcurve" smooth="yes"/>
      <point x="60.54" y="666.076"/>
      <point x="240.34199999999998" y="899.582"/>
      <point x="414.616" y="956.548" type="qcurve"/>
      <point x="414.616" y="960.894" type="line"/>
      <point x="277.696" y="991.624"/>
      <point x="142.198" y="1108.624"/>
      <point x="142.198" y="1212.624" type="qcurve" smooth="yes"/>
      <point x="142.198" y="1335.62"/>
      <point x="333.498" y="1480.502"/>
      <point x="597.934" y="1480.502" type="qcurve" smooth="yes"/>
      <point x="776.5219999999999" y="1480.502" type="line" smooth="yes"/>
      <point x="933.172" y="1480.502"/>
      <point x="1057.792" y="1504.422"/>
      <point x="1068.868" y="1537.0" type="qcurve"/>
      <point x="1168.59" y="1537.0" type="line"/>
      <point x="1159.9384899953554" y="1386.3884271612744"/>
      <point x="978.5219999999999" y="1248.648"/>
      <point x="768.454" y="1248.648" type="qcurve" smooth="yes"/>
      <point x="588.508" y="1248.648" type="line" smooth="yes"/>
      <point x="427.284" y="1248.648"/>
      <point x="344.47" y="1205.2121818182056"/>
      <point x="344.47" y="1150.944" type="qcurve" smooth="yes"/>
      <point x="344.47" y="1092.3401040462147"/>
      <point x="507.76536102782376" y="1037.264953476152"/>
      <point x="681.326" y="1015.426" type="qcurve" smooth="yes"/>
      <point x="954.5151510689885" y="981.9373097810052"/>
      <point x="1238.594" y="719.762718512171"/>
      <point x="1238.594" y="500.81" type="qcurve" smooth="yes"/>
      <point x="1238.594" y="280.1154090909028"/>
      <point x="916.88" y="-23.73"/>
      <point x="654.086" y="-23.73" type="qcurve" smooth="yes"/>
      <point x="390.292" y="-23.73"/>
      <point x="60.54" y="257.312"/>
    </contour>
  </outline>
</glyph>
<glyph name="brevebelowcomb.case" format="2">
  <advance width="1024"/>
  <outline>
    <contour>
      <point x="805.806" y="-104.878" type="qcurve"/>
      <point x="899.152" y="-165.882" type="line"/>
      <point x="868.11" y="-272.494"/>
      <point x="664.688" y="-457.486"/>
      <point x="511.692" y="-457.486" type="qcurve" smooth="yes"/>
      <point x="369.16" y="-457.486"/>
      <point x="161.468" y="-289.954"/>
      <point x="124.194" y="-166.266" type="qcurve"/>
      <point x="223.848" y="-104.532" type="line"/>
      <point x="265.118" y="-172.722"/>
      <point x="410.464" y="-278.798"/>
      <point x="512.038" y="-278.798" type="qcurve" smooth="yes"/>
      <point x="620.266" y="-278.798"/>
      <point x="766.612" y="-175.3"/>
    </contour>
  </outline>
</glyph>
<glyph name="brevecomb.case" format="2">
  <advance width="1024"/>
  <outline>
    <contour>
      <point x="806.46" y="1980.498" type="qcurve"/>
      <point x="899.806" y="1919.494" type="line"/>
      <point x="868.764" y="1812.882"/>
      <point x="665.342" y="1627.89"/>
      <point x="512.346" y="1627.89" type="qcurve" smooth="yes"/>
      <point x="369.814" y="1627.89"/>
      <point x="162.122" y="1795.422"/>
      <point x="124.848" y="1919.11" type="qcurve"/>
      <point x="224.502" y="1980.844" type="line"/>
      <point x="265.772" y="1912.654"/>
      <point x="411.118" y="1806.578"/>
      <point x="512.692" y="1806.578" type="qcurve" smooth="yes"/>
      <point x="620.92" y="1806.578"/>
      <point x="767.266" y="1910.076"/>
    </contour>
  </outline>
</glyph>
<glyph name="brevecombstack.case" format="2">
  <advance width="1024"/>
  <outline>
    <contour>
      <point x="806.46" y="1990.878" type="qcurve"/>
      <point x="899.806" y="1929.874" type="line"/>
      <point x="868.764" y="1823.262"/>
      <point x="665.342" y="1638.27"/>
      <point x="512.346" y="1638.27" type="qcurve" smooth="yes"/>
      <point x="369.814" y="1638.27"/>
      <point x="162.122" y="1805.802"/>
      <point x="124.848" y="1929.49" type="qcurve"/>
      <point x="224.502" y="1991.224" type="line"/>
      <point x="265.772" y="1923.034"/>
      <point x="411.118" y="1816.958"/>
      <point x="512.692" y="1816.958" type="qcurve" smooth="yes"/>
      <point x="620.92" y="1816.958"/>
      <point x="767.266" y="1920.456"/>
    </contour>
  </outline>
</glyph>
<glyph name="caroncomb.alt" format="2">
  <advance width="1024"/>
  <outline>
    <contour>
      <point x="366.426" y="1017.274" type="line"/>
      <point x="448.232" y="1379.308" type="line" smooth="yes"/>
      <point x="464.27" y="1452.076"/>
      <point x="523.422" y="1526.92"/>
      <point x="574.494" y="1526.92" type="qcurve" smooth="yes"/>
      <point x="624.182" y="1526.92"/>
      <point x="682.832" y="1477.232"/>
      <point x="682.832" y="1435.848" type="qcurve" smooth="yes"/>
      <point x="682.832" y="1394.464"/>
      <point x="658.756" y="1325.004"/>
      <point x="633.296" y="1280.658" type="qcurve" smooth="yes"/>
      <point x="463.076" y="983.738" type="line"/>
    </contour>
  </outline>
</glyph>
<glyph name="che.bgr" format="2">
  <advance width="1374"/>
  <outline>
    <contour>
      <point x="192.928" y="847.19" type="line"/>
      <point x="47.004000000000005" y="877.19" type="line"/>
      <point x="47.004000000000005" y="984.684" type="line"/>
      <point x="391.85" y="1017.992" type="line"/>
      <point x="441.728" y="1017.992" type="line"/>
      <point x="472.956" y="977.494" type="line"/>
      <point x="469.188" y="721.726" type="line" smooth="yes"/>
      <point x="467.926960942143" y="606.6758673220086"/>
      <point x="575.192" y="515.144"/>
      <point x="696.116" y="515.144" type="qcurve" smooth="yes"/>
      <point x="791.77" y="515.144"/>
      <point x="937.192" y="539.03"/>
      <point x="1022.036" y="568.608" type="qcurve"/>
      <point x="1022.036" y="459.0" type="line"/>
      <point x="932.2719999999999" y="427.0"/>
      <point x="751.554" y="394.038"/>
      <point x="617.06" y="394.038" type="qcurve" smooth="yes"/>
      <point x="419.186" y="394.038"/>
      <point x="195.7386212428536" y="549.420208372449"/>
      <point x="194.582" y="719.304" type="qcurve" smooth="yes"/>
    </contour>
    <contour>
      <point x="1163.434" y="977.494" type="line"/>
      <point x="1159.012" y="509.304" type="line"/>
      <point x="1161.012" y="128.84" type="line"/>
      <point x="1309.012" y="93.84" type="line"/>
      <point x="1309.012" y="0.0" type="line"/>
      <point x="721.6" y="0.0" type="line"/>
      <point x="721.6" y="93.84" type="line"/>
      <point x="882.7139999999999" y="128.84" type="line"/>
      <point x="885.06" y="508.65" type="line"/>
      <point x="883.406" y="847.19" type="line"/>
      <point x="744.022" y="877.19" type="line"/>
      <point x="744.022" y="984.684" type="line"/>
      <point x="1082.328" y="1017.992" type="line"/>
      <point x="1132.206" y="1017.992" type="line"/>
    </contour>
  </outline>
</glyph>
<glyph name="dblgravecomb.case" format="2">
  <advance width="1024"/>
  <outline>
    <contour>
      <point x="76.134" y="1929.148" type="qcurve" smooth="yes"/>
      <point x="76.134" y="1965.532"/>
      <point x="141.632" y="2017.182"/>
      <point x="179.784" y="2017.182" type="qcurve" smooth="yes"/>
      <point x="219.552" y="2017.182"/>
      <point x="285.662" y="1952.646"/>
      <point x="320.43" y="1907.802" type="qcurve" smooth="yes"/>
      <point x="502.16" y="1672.152" type="line"/>
      <point x="426.43" y="1595.114" type="line"/>
      <point x="161.978" y="1803.152" type="line" smooth="yes"/>
      <point x="120.518" y="1836.152"/>
      <point x="76.134" y="1884.57"/>
    </contour>
    <contour>
      <point x="476.514" y="1929.148" type="qcurve" smooth="yes"/>
      <point x="476.514" y="1965.532"/>
      <point x="542.012" y="2017.182"/>
      <point x="580.164" y="2017.182" type="qcurve" smooth="yes"/>
      <point x="619.932" y="2017.182"/>
      <point x="686.696" y="1952.646"/>
      <point x="721.464" y="1907.802" type="qcurve" smooth="yes"/>
      <point x="902.54" y="1672.152" type="line"/>
      <point x="826.81" y="1595.114" type="line"/>
      <point x="562.358" y="1803.152" type="line" smooth="yes"/>
      <point x="520.898" y="1836.152"/>
      <point x="476.514" y="1884.57"/>
    </contour>
  </outline>
</glyph>
<glyph name="diagonalbarO" format="2">
  <advance width="695"/>
  <outline>
    <contour>
      <point x="29.063999999999997" y="-121.308" type="line"/>
      <point x="86.064" y="86.692" type="line"/>
      <point x="104.064" y="81.692" type="line"/>
      <point x="310.064" y="871.692" type="line"/>
      <point x="431.904" y="803.692" type="line"/>
      <point x="238.904" y="54.692" type="line"/>
      <point x="258.904" y="50.692" type="line"/>
      <point x="215.904" y="-108.308" type="line"/>
    </contour>
    <contour>
      <point x="481.064" y="1618.692" type="line"/>
      <point x="665.904" y="1618.692" type="line"/>
      <point x="612.904" y="1424.692" type="line"/>
      <point x="591.904" y="1428.692" type="line"/>
      <point x="431.904" y="803.692" type="line"/>
      <point x="310.064" y="871.692" type="line"/>
      <point x="458.064" y="1455.692" type="line"/>
      <point x="438.064" y="1460.692" type="line"/>
    </contour>
  </outline>
</glyph>
<glyph name="dollar.rvrn" format="2">
  <advance width="1141"/>
  <outline>
    <contour>
      <point x="44.582" y="264.042" type="qcurve"/>
      <point x="167.848" y="354.688" type="line"/>
      <point x="222.886" y="260.19"/>
      <point x="424.616" y="133.072"/>
      <point x="571.772" y="133.072" type="qcurve" smooth="yes"/>
      <point x="713.582" y="133.072"/>
      <point x="864.012" y="267.886"/>
      <point x="864.012" y="371.582" type="qcurve" smooth="yes"/>
      <point x="864.012" y="499.932"/>
      <point x="680.274" y="634.13"/>
      <point x="505.928" y="692.898" type="qcurve" smooth="yes"/>
      <point x="299.814" y="763.05"/>
      <point x="103.7" y="961.852"/>
      <point x="103.7" y="1120.118" type="qcurve" smooth="yes"/>
      <point x="103.7" y="1285.038"/>
      <point x="353.384" y="1500.654"/>
      <point x="562.996" y="1500.654" type="qcurve" smooth="yes"/>
      <point x="698.452" y="1500.654"/>
      <point x="919.182" y="1434.616"/>
      <point x="1003.372" y="1367.464" type="qcurve"/>
      <point x="916.646" y="1245.548" type="line"/>
      <point x="853.688" y="1297.582"/>
      <point x="681.304" y="1360.966"/>
      <point x="568.38" y="1360.966" type="qcurve" smooth="yes"/>
      <point x="441.68399999999997" y="1360.966"/>
      <point x="310.756" y="1262.152"/>
      <point x="310.756" y="1170.996" type="qcurve" smooth="yes"/>
      <point x="310.756" y="1087.456"/>
      <point x="435.95" y="971.95"/>
      <point x="636.414" y="902.064" type="qcurve" smooth="yes"/>
      <point x="850.22" y="824.988"/>
      <point x="1085.946" y="619.072"/>
      <point x="1085.946" y="436.228" type="qcurve" smooth="yes"/>
      <point x="1085.946" y="244.886"/>
      <point x="813.528" y="1.0"/>
      <point x="586.882" y="1.0" type="qcurve" smooth="yes"/>
      <point x="382.0" y="1.0"/>
      <point x="120.274" y="136.118"/>
    </contour>
    <contour>
      <point x="491.0" y="-187.232" type="line"/>
      <point x="491.0" y="53.73" type="line"/>
      <point x="510.654" y="53.73" type="line"/>
      <point x="510.654" y="54.73" type="line"/>
      <point x="650.916" y="54.73" type="line"/>
      <point x="650.916" y="53.73" type="line"/>
      <point x="672.916" y="53.73" type="line"/>
      <point x="672.916" y="-144.152" type="line"/>
    </contour>
    <contour>
      <point x="487.232" y="1608.27" type="line"/>
      <point x="669.494" y="1642.772" type="line"/>
      <point x="669.494" y="1419.73" type="line"/>
      <point x="648.494" y="1419.73" type="line"/>
      <point x="648.494" y="1418.73" type="line"/>
      <point x="508.578" y="1418.73" type="line"/>
      <point x="508.578" y="1419.73" type="line"/>
      <point x="487.232" y="1419.73" type="line"/>
    </contour>
  </outline>
</glyph>
<glyph name="dotaccentcombstack.case" format="2">
  <advance width="1024"/>
  <outline>
    <contour>
      <point x="378.89" y="1785.08" type="qcurve" smooth="yes"/>
      <point x="378.89" y="1848.308"/>
      <point x="447.464" y="1915.536"/>
      <point x="512.346" y="1915.536" type="qcurve" smooth="yes"/>
      <point x="573.228" y="1915.536"/>
      <point x="645.802" y="1843.616"/>
      <point x="645.802" y="1785.08" type="qcurve" smooth="yes"/>
      <point x="645.802" y="1722.198"/>
      <point x="577.92" y="1654.624"/>
      <point x="512.346" y="1654.624" type="qcurve" smooth="yes"/>
      <point x="451.464" y="1654.624"/>
      <point x="378.89" y="1726.198"/>
    </contour>
  </outline>
</glyph>
<glyph name="el.bgr" format="2">
  <advance width="1175"/>
  <outline>
    <contour>
      <point x="1177.792" y="107.3" type="line"/>
      <point x="1177.792" y="0.0" type="line"/>
      <point x="629.924" y="0.0" type="line"/>
      <point x="629.924" y="107.3" type="line"/>
      <point x="758.426" y="143.954" type="line"/>
      <point x="639.194" y="461.54" type="line"/>
      <point x="520.422" y="774.94" type="line"/>
      <point x="401.764" y="456.81" type="line"/>
      <point x="289.76" y="139.03" type="line"/>
      <point x="422.608" y="107.3" type="line"/>
      <point x="422.608" y="0.0" type="line"/>
      <point x="-6.54" y="0.0" type="line"/>
      <point x="-6.54" y="107.3" type="line"/>
      <point x="137.654" y="142.3" type="line"/>
      <point x="280.118" y="497.118" type="line"/>
      <point x="473.384" y="1022.532" type="line"/>
      <point x="700.222" y="1022.532" type="line"/>
      <point x="891.066" y="534.916" type="line"/>
      <point x="1053.91" y="142.3" type="line"/>
    </contour>
  </outline>
</glyph>
<glyph name="engtail" format="2">
  <advance width="768"/>
  <outline>
    <contour>
      <point x="450.14" y="190.0" type="line"/>
      <point x="661.784" y="190.0" type="line"/>
      <point x="661.784" y="-160.054" type="line" smooth="yes"/>
      <point x="661.784" y="-283.236"/>
      <point x="507.568" y="-443.0"/>
      <point x="357.576" y="-443.0" type="qcurve" smooth="yes"/>
      <point x="261.702" y="-443.0"/>
      <point x="95.71799999999999" y="-381.0"/>
      <point x="43.95399999999999" y="-328.308" type="qcurve"/>
      <point x="105.224" y="-223.898" type="line"/>
      <point x="147.57" y="-262.476"/>
      <point x="225.338" y="-292.822"/>
      <point x="266.68399999999997" y="-292.822" type="qcurve" smooth="yes"/>
      <point x="316.912" y="-292.822"/>
      <point x="385.756" y="-230.4"/>
      <point x="385.756" y="-137.666" type="qcurve" smooth="yes"/>
      <point x="385.756" y="-58.666"/>
      <point x="385.756" y="150.0"/>
      <point x="385.756" y="150.0" type="qcurve"/>
    </contour>
  </outline>
</glyph>
<glyph name="four.lc" format="2">
  <advance width="1215"/>
  <outline>
    <contour>
      <point x="694.586" y="-384.65" type="line"/>
      <point x="701.164" y="130.764" type="line"/>
      <point x="700.818" y="820.366" type="line"/>
      <point x="222.148" y="217.494" type="line"/>
      <point x="226.072" y="204.726" type="line"/>
      <point x="1221.39" y="187.722" type="line"/>
      <point x="1221.39" y="72.692" type="line"/>
      <point x="59.35" y="61.426" type="line"/>
      <point x="40.004000000000005" y="174.692" type="line"/>
      <point x="769.696" y="1103.194" type="line"/>
      <point x="938.352" y="1073.114" type="line"/>
      <point x="974.002" y="1043.274" type="line"/>
      <point x="968.348" y="132.764" type="line"/>
      <point x="968.002" y="-384.65" type="line"/>
    </contour>
  </outline>
</glyph>
<glyph name="gravecombstack.case" format="2">
  <advance width="1024"/>
  <outline>
    <contour>
      <point x="277.02" y="1842.012" type="qcurve" smooth="yes"/>
      <point x="272.176" y="1882.704"/>
      <point x="332.062" y="1953.544"/>
      <point x="366.982" y="1959.426" type="qcurve" smooth="yes"/>
      <point x="407.134" y="1964.962"/>
      <point x="499.666" y="1898.034"/>
      <point x="543.008" y="1844.224" type="qcurve" smooth="yes"/>
      <point x="705.22" y="1647.41" type="line"/>
      <point x="626.676" y="1572.688" type="line"/>
      <point x="365.236" y="1742.016" type="line" smooth="yes"/>
      <point x="326.434" y="1764.21"/>
      <point x="281.86400000000003" y="1811.476"/>
    </contour>
  </outline>
</glyph>
<glyph name="hookabovecomb.case" format="2">
  <advance width="1024"/>
  <outline>
    <contour>
      <point x="378.54" y="1582.814" type="line"/>
      <point x="378.54" y="1710.03" type="line"/>
      <point x="444.114" y="1795.954" type="line"/>
      <point x="460.19" y="1789.954"/>
      <point x="505.228" y="1782.954"/>
      <point x="522.536" y="1782.954" type="qcurve" smooth="yes"/>
      <point x="568.574" y="1782.954"/>
      <point x="611.726" y="1827.376"/>
      <point x="611.726" y="1868.338" type="qcurve" smooth="yes"/>
      <point x="611.726" y="1909.03"/>
      <point x="547.996" y="1956.3"/>
      <point x="504.114" y="1956.3" type="qcurve" smooth="yes"/>
      <point x="448.806" y="1956.3"/>
      <point x="341.346" y="1932.916"/>
      <point x="304.194" y="1915.878" type="qcurve"/>
      <point x="255.388" y="2030.756" type="line"/>
      <point x="310.772" y="2058.178"/>
      <point x="455.384" y="2088.984"/>
      <point x="516.152" y="2088.984" type="qcurve" smooth="yes"/>
      <point x="642.296" y="2088.984"/>
      <point x="781.444" y="1976.372"/>
      <point x="781.444" y="1870.03" type="qcurve" smooth="yes"/>
      <point x="781.444" y="1778.456"/>
      <point x="671.95" y="1663.536"/>
      <point x="592.11" y="1663.536" type="qcurve" smooth="yes"/>
      <point x="563.688" y="1663.536"/>
      <point x="515.456" y="1670.806"/>
      <point x="500.418" y="1674.152" type="qcurve"/>
      <point x="500.418" y="1582.814" type="line"/>
    </contour>
  </outline>
</glyph>
<glyph name="horizontalbarH" format="2">
  <advance width="1563"/>
  <outline>
    <contour>
      <point x="1529.0" y="986.62" type="line"/>
      <point x="1347.0" y="984.62" type="line"/>
      <point x="1347.0" y="1142.38" type="line"/>
      <point x="1539.0" y="1144.38" type="line"/>
    </contour>
    <contour>
      <point x="33.22" y="984.62" type="line"/>
      <point x="24.22" y="1142.38" type="line"/>
      <point x="223.22" y="1142.38" type="line"/>
      <point x="223.22" y="984.62" type="line"/>
    </contour>
    <contour>
      <point x="223.22" y="984.62" type="line"/>
      <point x="223.22" y="1142.38" type="line"/>
      <point x="1347.0" y="1142.38" type="line"/>
      <point x="1347.0" y="984.62" type="line"/>
    </contour>
  </outline>
</glyph>
<glyph name="jdotless" format="2">
  <advance width="648"/>
  <outline>
    <contour>
      <point x="-12.0" y="-479.0" type="qcurve"/>
      <point x="-12.0" y="-333.7" type="line"/>
      <point x="110.08" y="-330.7"/>
      <point x="208.198" y="-237.78"/>
      <point x="208.198" y="-122.7" type="qcurve" smooth="yes"/>
      <point x="206.544" y="535.65" type="line"/>
      <point x="201.928" y="847.19" type="line"/>
      <point x="40.848" y="877.19" type="line"/>
      <point x="40.848" y="984.684" type="line"/>
      <point x="402.926" y="1017.992" type="line"/>
      <point x="460.306" y="1017.992" type="line"/>
      <point x="490.226" y="975.532" type="line"/>
      <point x="484.226" y="535.65" type="line"/>
      <point x="486.572" y="-115.08" type="line" smooth="yes"/>
      <point x="487.572" y="-294.08"/>
      <point x="264.778" y="-491.73"/>
    </contour>
  </outline>
</glyph>
<glyph name="seven.lc" format="2">
  <advance width="1021"/>
  <outline>
    <contour>
      <point x="67.19" y="714.674" type="line"/>
      <point x="81.578" y="1091.73" type="line"/>
      <point x="1004.31" y="1091.73" type="line"/>
      <point x="1004.31" y="970.974" type="line"/>
      <point x="693.998" y="240.882" type="line"/>
      <point x="458.352" y="-384.65" type="line"/>
      <point x="222.494" y="-384.65" type="line"/>
      <point x="222.494" y="-308.536" type="line"/>
      <point x="527.212" y="277.232" type="line"/>
      <point x="818.09" y="873.978" type="line"/>
      <point x="797.052" y="895.594" type="line"/>
      <point x="216.574" y="895.594" type="line"/>
      <point x="181.958" y="714.674" type="line"/>
    </contour>
  </outline>
</glyph>
<glyph name="tildecomb.case" format="2">
  <advance width="1024"/>
  <outline>
    <contour>
      <point x="107.076" y="1756.118" type="line"/>
      <point x="143.73" y="1827.886"/>
      <point x="289.886" y="1945.384"/>
      <point x="369.654" y="1945.384" type="qcurve" smooth="yes"/>
      <point x="415.308" y="1945.384"/>
      <point x="495.578" y="1917.114"/>
      <point x="537.924" y="1889.806" type="qcurve" smooth="yes"/>
      <point x="569.308" y="1870.768"/>
      <point x="664.232" y="1817.882"/>
      <point x="710.54" y="1817.882" type="qcurve" smooth="yes"/>
      <point x="755.848" y="1817.882"/>
      <point x="840.156" y="1872.806"/>
      <point x="865.81" y="1911.806" type="qcurve"/>
      <point x="933.464" y="1823.692" type="line"/>
      <point x="891.81" y="1738.924"/>
      <point x="757.654" y="1645.426"/>
      <point x="691.886" y="1645.426" type="qcurve" smooth="yes"/>
      <point x="639.232" y="1645.426"/>
      <point x="533.27" y="1693.042"/>
      <point x="501.616" y="1713.658" type="qcurve" smooth="yes"/>
      <point x="463.886" y="1738.312"/>
      <point x="383.654" y="1774.236"/>
      <point x="351.0" y="1774.236" type="qcurve" smooth="yes"/>
      <point x="298.346" y="1774.236"/>
      <point x="201.384" y="1698.004"/>
      <point x="181.384" y="1668.35" type="qcurve"/>
    </contour>
  </outline>
</glyph>
<glyph name="two.lc" format="2">
  <advance width="1066"/>
  <outline>
    <contour>
      <point x="56.498" y="0.0" type="line"/>
      <point x="56.498" y="100.38" type="line"/>
      <point x="74.616" y="186.878"/>
      <point x="248.84" y="382.76"/>
      <point x="394.574" y="478.072" type="qcurve" smooth="yes"/>
      <point x="547.076" y="578.422"/>
      <point x="672.346" y="718.042"/>
      <point x="672.346" y="804.16" type="qcurve" smooth="yes"/>
      <point x="672.346" y="885.662"/>
      <point x="567.228" y="965.472"/>
      <point x="473.65" y="965.472" type="qcurve" smooth="yes"/>
      <point x="373.954" y="965.472"/>
      <point x="200.266" y="890.126"/>
      <point x="129.304" y="824.624" type="qcurve"/>
      <point x="56.114" y="941.768" type="line"/>
      <point x="128.38" y="1014.19"/>
      <point x="376.79" y="1122.266"/>
      <point x="561.512" y="1122.266" type="qcurve" smooth="yes"/>
      <point x="753.036" y="1122.266"/>
      <point x="982.26" y="975.844"/>
      <point x="983.99" y="840.266" type="qcurve" smooth="yes"/>
      <point x="986.066" y="691.844"/>
      <point x="775.298" y="492.536"/>
      <point x="605.42" y="413.726" type="qcurve" smooth="yes"/>
      <point x="453.28" y="345.304"/>
      <point x="313.47" y="247.524"/>
      <point x="286.394" y="202.558" type="qcurve"/>
      <point x="293.664" y="193.174" type="line"/>
      <point x="1005.758" y="193.174" type="line"/>
      <point x="1005.758" y="0.0" type="line"/>
    </contour>
  </outline>
</glyph>
<glyph name="two.tab" format="2">
  <advance width="1146"/>
  <outline>
    <contour>
      <point x="89.41" y="0.0" type="line"/>
      <point x="89.41" y="135.494" type="line"/>
      <point x="107.52799999999999" y="260.878"/>
      <point x="288.292" y="517.604"/>
      <point x="439.912" y="647.764" type="qcurve" smooth="yes"/>
      <point x="598.954" y="783.654"/>
      <point x="722.916" y="980.582"/>
      <point x="722.916" y="1112.24" type="qcurve" smooth="yes"/>
      <point x="722.916" y="1227.742"/>
      <point x="608.106" y="1350.594"/>
      <point x="511.566" y="1350.594" type="qcurve" smooth="yes"/>
      <point x="404.178" y="1350.594"/>
      <point x="230.486" y="1259.172"/>
      <point x="158.292" y="1173.8220000000001" type="qcurve"/>
      <point x="82.48599999999999" y="1286.388" type="line"/>
      <point x="156.714" y="1384.502"/>
      <point x="403.65999999999997" y="1522.076"/>
      <point x="595.96" y="1522.076" type="qcurve" smooth="yes"/>
      <point x="789.218" y="1522.076"/>
      <point x="1025.636" y="1321.692"/>
      <point x="1027.366" y="1138.498" type="qcurve" smooth="yes"/>
      <point x="1029.442" y="926.958"/>
      <point x="772.894" y="646.798"/>
      <point x="635.716" y="564.608" type="qcurve" smooth="yes"/>
      <point x="478.998" y="470.532"/>
      <point x="307.31" y="308.364"/>
      <point x="278.926" y="233.398" type="qcurve"/>
      <point x="286.85" y="220.322" type="line"/>
      <point x="1066.982" y="220.322" type="line"/>
      <point x="1066.982" y="0.0" type="line"/>
    </contour>
  </outline>
</glyph>
<glyph name="yu.bgr" format="2">
  <advance width="1913"/>
  <outline>
    <contour>
      <point x="67.35" y="0.0" type="line"/>
      <point x="67.35" y="93.84" type="line"/>
      <point x="222.43" y="128.84" type="line"/>
      <point x="224.43" y="527.0" type="line"/>
      <point x="222.43" y="1361.468" type="line"/>
      <point x="46.81" y="1391.468" type="line"/>
      <point x="46.81" y="1500.0" type="line"/>
      <point x="432.424" y="1534.0" type="line"/>
      <point x="464.424" y="1534.0" type="line"/>
      <point x="502.45799999999997" y="1496.81" type="line"/>
      <point x="500.45799999999997" y="527.0" type="line"/>
      <point x="502.45799999999997" y="128.84" type="line"/>
      <point x="653.192" y="93.84" type="line"/>
      <point x="653.192" y="0.0" type="line"/>
    </contour>
    <contour>
      <point x="990.954" y="526.92" type="qcurve" smooth="yes"/>
      <point x="991.954" y="330.004"/>
      <point x="1143.312" y="97.342"/>
      <point x="1270.59" y="97.342" type="qcurve" smooth="yes"/>
      <point x="1407.176" y="97.342"/>
      <point x="1552.572" y="308.35"/>
      <point x="1552.572" y="512.92" type="qcurve" smooth="yes"/>
      <point x="1552.572" y="702.836"/>
      <point x="1400.214" y="910.152"/>
      <point x="1272.59" y="910.152" type="qcurve" smooth="yes"/>
      <point x="1134.35" y="910.152"/>
      <point x="989.954" y="722.49"/>
    </contour>
    <contour>
      <point x="694.698" y="508.65" type="qcurve" smooth="yes"/>
      <point x="694.698" y="736.376"/>
      <point x="1012.758" y="1040.684"/>
      <point x="1271.552" y="1040.684" type="qcurve" smooth="yes"/>
      <point x="1531.346" y="1040.684"/>
      <point x="1852.752" y="756.722"/>
      <point x="1852.752" y="514.65" type="qcurve" smooth="yes"/>
      <point x="1852.752" y="287.924"/>
      <point x="1537.038" y="-23.73"/>
      <point x="1278.244" y="-23.73" type="qcurve" smooth="yes"/>
      <point x="1018.45" y="-23.73"/>
      <point x="694.698" y="264.578"/>
    </contour>
    <contour>
      <point x="362.444" y="587.148" type="line"/>
      <point x="842.826" y="584.148" type="line"/>
      <point x="842.826" y="464.772" type="line"/>
      <point x="362.444" y="462.772" type="line"/>
    </contour>
  </outline>
</glyph>
<glyph name="ze.bgr" format="2">
  <advance width="1031"/>
  <outline>
    <contour>
      <point x="449.19" y="912.0" type="qcurve" smooth="yes"/>
      <point x="349.03496" y="912.0"/>
      <point x="244.0328743761106" y="815.9434904084738"/>
      <point x="222.528" y="737.456" type="qcurve" smooth="yes"/>
      <point x="205.874" y="664.346" type="line"/>
      <point x="90.882" y="664.346" type="line"/>
      <point x="90.882" y="1022.262" type="line"/>
      <point x="201.452" y="1022.262" type="line"/>
      <point x="224.798" y="972.608" type="line"/>
      <point x="260.4508994638928" y="998.9611985355144"/>
      <point x="395.8899258746852" y="1041.03"/>
      <point x="500.132" y="1041.03" type="qcurve" smooth="yes"/>
      <point x="699.4522187500219" y="1041.03"/>
      <point x="918.922" y="854.916"/>
      <point x="918.922" y="663.338" type="qcurve" smooth="yes"/>
      <point x="918.922" y="549.072"/>
      <point x="778.314" y="364.958"/>
      <point x="633.238" y="315.916" type="qcurve"/>
      <point x="633.238" y="311.916" type="line"/>
      <point x="804.7419684204898" y="286.0589493546258"/>
      <point x="987.686" y="93.1116000000218"/>
      <point x="987.686" y="-63.586" type="qcurve" smooth="yes"/>
      <point x="987.686" y="-266.4863018868196"/>
      <point x="716.424" y="-509.232"/>
      <point x="479.63" y="-509.232" type="qcurve" smooth="yes"/>
      <point x="374.478" y="-509.232"/>
      <point x="230.524" y="-467.194"/>
      <point x="197.756" y="-440.81" type="qcurve"/>
      <point x="174.41" y="-490.464" type="line"/>
      <point x="63.84" y="-490.464" type="line"/>
      <point x="63.84" y="-126.00800000000001" type="line"/>
      <point x="178.832" y="-126.00800000000001" type="line"/>
      <point x="196.178" y="-197.734" type="line" smooth="yes"/>
      <point x="218.41" y="-287.696"/>
      <point x="325.106" y="-379.548"/>
      <point x="438.574" y="-379.548" type="qcurve" smooth="yes"/>
      <point x="571.54" y="-379.548"/>
      <point x="708.198" y="-209.773177570123"/>
      <point x="708.198" y="-58.354" type="qcurve" smooth="yes"/>
      <point x="708.198" y="90.1266453674182"/>
      <point x="572.3484109020684" y="246.152"/>
      <point x="440.65" y="245.46" type="qcurve" smooth="yes"/>
      <point x="308.722" y="244.768" type="line"/>
      <point x="308.722" y="366.49" type="line"/>
      <point x="431.65" y="365.452" type="line" smooth="yes"/>
      <point x="539.5976693548366" y="364.414"/>
      <point x="651.468" y="510.688"/>
      <point x="651.468" y="642.266" type="qcurve" smooth="yes"/>
      <point x="651.468" y="775.768"/>
      <point x="551.7777349276174" y="912.0"/>
    </contour>
  </outline>
</glyph>
